<?xml version="1.0" encoding="UTF-8" standalone="no"?>
<svg
   xmlns:dc="http://purl.org/dc/elements/1.1/"
   xmlns:cc="http://creativecommons.org/ns#"
   xmlns:rdf="http://www.w3.org/1999/02/22-rdf-syntax-ns#"
   xmlns:svg="http://www.w3.org/2000/svg"
   xmlns="http://www.w3.org/2000/svg"
   xmlns:sodipodi="http://sodipodi.sourceforge.net/DTD/sodipodi-0.dtd"
   xmlns:inkscape="http://www.inkscape.org/namespaces/inkscape"
   sodipodi:docname="moon.svg"
   inkscape:version="1.0 (4035a4fb49, 2020-05-01)"
   id="svg8"
   version="1.1"
   viewBox="0 0 210 210"
   height="210mm"
   width="210mm">
  <defs
     id="defs2" />
  <sodipodi:namedview
     inkscape:window-maximized="1"
     inkscape:window-y="49"
     inkscape:window-x="1272"
     inkscape:window-height="705"
     inkscape:window-width="1366"
     showgrid="false"
     inkscape:document-rotation="0"
     inkscape:current-layer="layer1"
     inkscape:document-units="mm"
     inkscape:cy="146.69769"
     inkscape:cx="498.8255"
     inkscape:zoom="0.7"
     inkscape:pageshadow="2"
     inkscape:pageopacity="0.0"
     borderopacity="1.0"
     bordercolor="#666666"
     pagecolor="#ffffff"
     id="base" />
  <metadata
     id="metadata5">
    <rdf:RDF>
      <cc:Work
         rdf:about="">
        <dc:format>image/svg+xml</dc:format>
        <dc:type
           rdf:resource="http://purl.org/dc/dcmitype/StillImage" />
        <dc:title></dc:title>
      </cc:Work>
    </rdf:RDF>
  </metadata>
  <g
     id="layer1"
     inkscape:groupmode="layer"
     inkscape:label="Layer 1">
    <g
       transform="translate(-1.0989473,-4.1079412)"
       id="g49">
      <path
         id="path38"
         d="m 96.657967,204.64699 c 0.223478,-0.0905 0.58917,-0.0905 0.812649,0 0.223478,0.0905 0.04063,0.16459 -0.406325,0.16459 -0.446957,0 -0.629803,-0.0741 -0.406324,-0.16459 z m 13.002383,0 c 0.22347,-0.0905 0.58917,-0.0905 0.81264,0 0.22348,0.0905 0.0406,0.16459 -0.40632,0.16459 -0.44696,0 -0.6298,-0.0741 -0.40632,-0.16459 z m -69.349831,-23.03415 -0.619236,-0.73422 0.731384,0.62164 c 0.687319,0.58418 0.879365,0.8468 0.619236,0.8468 -0.06168,0 -0.390806,-0.3304 -0.731384,-0.73422 z m 126.153981,0.0816 c 0.32359,-0.35895 0.66149,-0.65264 0.75088,-0.65264 0.0894,0 -0.10223,0.29369 -0.42582,0.65264 -0.3236,0.35895 -0.66149,0.65264 -0.75088,0.65264 -0.0894,0 0.10222,-0.29369 0.42582,-0.65264 z m -47.45869,-1.50829 c -0.53635,-0.0812 -2.68019,-0.4304 -4.7641,-0.77597 -3.51212,-0.58241 -4.04641,-0.59391 -7.31383,-0.15735 -7.783465,1.03992 -13.853724,0.2114 -17.994573,-2.45608 l -1.519744,-0.97899 -2.569739,0.6262 c -4.669665,1.13793 -7.393385,1.47042 -11.996468,1.46442 -6.623433,-0.009 -10.659677,-1.28962 -13.832665,-4.39015 -4.032822,-3.94072 -4.407397,-9.93169 -1.125255,-17.99726 0.240778,-0.5917 0.309366,-0.56218 -2.910122,-1.25224 -5.20184,-1.11495 -9.054094,-4.6121 -10.228056,-9.28523 l -0.327904,-1.30528 -4.478924,-0.005 c -2.685808,-0.003 -5.194667,-0.18362 -6.266748,-0.45142 -11.771523,-2.94039 -14.324291,-13.04645 -6.561376,-25.97559 0.754326,-1.25633 1.539775,-2.52318 1.745442,-2.81522 0.307662,-0.43687 0.154541,-0.75498 -0.863902,-1.79475 -3.060182,-3.1243 -3.889305,-7.99892 -2.305589,-13.555154 1.586998,-5.567739 5.271864,-11.556742 11.073419,-17.997596 L 39.850384,77.658862 38.719567,75.97196 C 35.630908,71.36444 35.93637,65.685268 39.676406,58.182384 48.471285,40.53898 74.642757,22.210324 96.731359,18.225114 c 3.595501,-0.648697 10.409771,-1.227253 10.409771,-0.883826 0,0.110584 -0.56557,0.490714 -1.25683,0.844734 -4.32302,2.213992 -5.74626,6.102346 -3.7692,10.297695 0.80895,1.716602 5.28744,6.833076 4.85886,5.551028 -0.11999,-0.358951 -0.29622,-1.476666 -0.39163,-2.483811 -0.46755,-4.936046 3.10533,-8.84783 9.66047,-10.576805 2.76944,-0.730461 8.93238,-0.738128 12.76667,-0.01588 7.47098,1.407269 14.66474,5.088887 19.4143,9.935843 2.93758,2.997817 4.47377,5.738971 5.01143,8.942326 l 0.38765,2.309586 0.66843,-0.955595 c 2.39308,-3.42119 1.49486,-7.423731 -2.65764,-11.842662 -2.6085,-2.775859 -5.45467,-4.880751 -9.42277,-6.968621 -1.60947,-0.846844 -2.80558,-1.544352 -2.65802,-1.550017 0.14756,-0.0057 1.80058,0.591118 3.67339,1.326185 20.37401,7.996719 36.19937,24.752824 43.01833,45.548392 2.51492,7.669685 3.31415,12.502202 3.49836,21.152729 0.1669,7.837051 -0.21064,12.024025 -1.66246,18.437055 l -0.77568,3.42635 0.77766,1.5431 c 2.01782,4.00396 2.89839,8.10303 2.40046,11.17426 -0.80049,4.93746 -4.90592,8.78735 -11.1495,10.4555 -1.49899,0.4005 -2.1577,0.72407 -2.04962,1.0068 0.62661,1.63927 0.94735,3.59848 0.95632,5.84173 0.009,2.27291 -0.1228,2.88939 -1.0198,4.76644 -1.62484,3.40016 -4.60842,5.7305 -9.16798,7.1607 l -1.78783,0.56078 -0.23482,2.55779 c -0.7053,7.68226 -6.89764,12.10742 -17.8378,12.74718 l -3.44494,0.20146 -0.39118,1.5322 c -0.51365,2.01195 -2.32201,4.66805 -4.02894,5.9177 -4.0188,2.94216 -7.51382,3.88107 -15.01982,4.03493 -3.03931,0.0623 -5.96485,0.0468 -6.50119,-0.0344 z M 107.886,159.9051 c 2.39173,-1.05191 4.80274,-3.62732 5.73338,-6.1243 0.72021,-1.93241 0.98612,-6.90897 0.348,-6.51306 -0.17878,0.11092 -0.32506,0.46324 -0.32506,0.78293 0,1.10322 -2.01465,4.6241 -3.55331,6.20991 -4.83706,4.98528 -11.250271,4.60394 -13.997154,-0.83229 -1.035883,-2.05007 -1.286807,-6.08603 -0.537843,-8.65089 0.277532,-0.95042 0.445819,-1.78706 0.373968,-1.85919 -0.07185,-0.0721 -0.564544,0.55571 -1.094872,1.39519 -2.599186,4.11437 -2.091976,9.71255 1.205337,13.30358 3.074673,3.34856 7.495284,4.20231 11.847554,2.28812 z M 82.175677,131.84053 c 2.562451,-1.26638 5.336476,-4.09933 6.527992,-6.66665 1.297436,-2.79555 1.641469,-4.87319 1.442162,-8.70933 -0.270576,-5.20791 -1.897587,-9.36675 -5.309291,-13.57121 -1.996692,-2.46064 -3.041352,-2.989984 -1.570444,-0.79576 3.105752,4.63302 3.31927,11.89242 0.481897,16.38384 -4.111327,6.50801 -11.715604,8.26406 -18.700616,4.31852 -5.091466,-2.87596 -8.290468,-8.38991 -8.290468,-14.28984 0,-1.44681 -0.065,-2.56531 -0.144453,-2.48555 -0.07945,0.0798 -0.284691,1.27898 -0.456094,2.66494 -1.255049,10.14829 5.390078,20.53501 15.219033,23.78824 1.372444,0.45425 2.606393,0.57488 5.22269,0.51054 3.120747,-0.0768 3.61721,-0.17891 5.577592,-1.14774 z m 25.414853,-20.65316 c -0.64461,-3.03252 -0.42322,-8.39457 0.4639,-11.235974 1.50767,-4.828962 4.37099,-8.656941 7.70078,-10.295211 1.37813,-0.678043 2.09493,-0.799652 4.71336,-0.799652 2.90129,0 3.21255,0.06775 5.14618,1.120173 2.68021,1.458768 5.27071,4.345253 6.90187,7.69045 1.24837,2.560184 2.25457,5.786144 2.25457,7.228334 0,0.40039 0.13449,0.81142 0.29887,0.91341 0.51207,0.3177 0.79133,-4.07294 0.41384,-6.506604 -1.10138,-7.10065 -6.15749,-12.995558 -12.58874,-14.677177 -8.47555,-2.216156 -17.19103,3.774645 -19.15976,13.169927 -0.78959,3.768114 -0.57005,6.529034 0.8265,10.394024 0.81493,2.25535 3.07709,5.89253 3.43894,5.52928 0.0579,-0.0581 -0.12677,-1.19704 -0.41031,-2.53098 z m 59.54756,0.52275 c 2.775,-0.82728 5.5582,-4.31057 6.65768,-8.33237 0.62853,-2.2991 0.56242,-6.386254 -0.14069,-8.697659 -0.75041,-2.46687 -2.53358,-4.890089 -4.26505,-5.795949 -2.45837,-1.286155 -5.91534,-0.604712 -7.93107,1.563381 l -0.77976,0.838706 1.10267,-0.31747 c 2.50689,-0.721753 4.8739,-0.13303 6.99267,1.739214 4.31937,3.816803 4.45966,10.633937 0.31804,15.454187 -1.23235,1.43428 -4.03372,3.04726 -5.29238,3.04726 -0.8776,0 -1.00586,0.53736 -0.17997,0.75402 1.0808,0.28353 1.91969,0.22313 3.51786,-0.25332 z M 79.261769,70.573467 c 3.671872,-0.458978 8.300278,-3.893063 10.284854,-7.630941 2.682421,-5.052244 2.674977,-11.638852 -0.01889,-16.728796 -1.706309,-3.223981 -4.797801,-6.41406 -7.643824,-7.887579 -1.469038,-0.760589 -1.641258,-0.672647 -0.702593,0.358766 1.832088,2.013113 3.456342,5.179842 4.510643,8.794189 2.299289,7.882409 -0.143423,15.653583 -5.79247,18.427977 -2.044328,1.004026 -5.772869,1.198503 -8.39985,0.438133 -3.955539,-1.144915 -8.261356,-4.507781 -11.078289,-8.652191 -1.33499,-1.964104 -1.42509,-2.036553 -1.217481,-0.978958 1.25772,6.407057 7.170641,12.37869 13.539188,13.673627 3.186607,0.647946 2.889099,0.639465 6.518708,0.185773 z m -41.707975,108.591973 -0.788046,-0.89737 0.893913,0.7911 c 0.835497,0.7394 1.042983,1.00365 0.788047,1.00365 -0.05823,0 -0.460488,-0.40382 -0.893914,-0.89738 z m 131.673706,0.0816 c 0.4199,-0.44869 0.83659,-0.81579 0.92598,-0.81579 0.0894,0 -0.18102,0.3671 -0.60092,0.81579 -0.41989,0.44869 -0.83658,0.8158 -0.92597,0.8158 -0.0894,0 0.18102,-0.36711 0.60091,-0.8158 z m -137.849837,-6.28165 -0.788046,-0.89737 0.893913,0.7911 c 0.835497,0.7394 1.042982,1.00365 0.788047,1.00365 -0.05823,0 -0.460488,-0.40382 -0.893914,-0.89738 z m 144.025977,0.0816 c 0.41989,-0.44868 0.83658,-0.81579 0.92597,-0.81579 0.0894,0 -0.18102,0.36711 -0.60091,0.81579 -0.4199,0.44869 -0.83659,0.8158 -0.92598,0.8158 -0.0894,0 0.18102,-0.36711 0.60092,-0.8158 z M 28.933434,170.1917 28.3142,169.45748 l 0.731384,0.62164 c 0.68732,0.58418 0.879364,0.8468 0.619234,0.8468 -0.06168,0 -0.390805,-0.3304 -0.731384,-0.73422 z m 148.908146,0.0816 c 0.3236,-0.35895 0.66149,-0.65264 0.75088,-0.65264 0.0894,0 -0.10222,0.29369 -0.42582,0.65264 -0.32359,0.35895 -0.66149,0.65264 -0.75088,0.65264 -0.0894,0 0.10223,-0.29369 0.42582,-0.65264 z M 6.0989473,113.49366 c 0,-0.44869 0.07378,-0.63225 0.1639555,-0.4079 0.090175,0.22434 0.090175,0.59145 0,0.81579 -0.090176,0.22435 -0.1639555,0.0408 -0.1639555,-0.40789 z m 194.7106527,0 c 0,-0.44869 0.0738,-0.63225 0.16396,-0.4079 0.0902,0.22434 0.0902,0.59145 0,0.81579 -0.0902,0.22435 -0.16396,0.0408 -0.16396,-0.40789 z M 6.0989473,100.44088 c 0,-0.448694 0.07378,-0.632254 0.1639555,-0.4079 0.090175,0.22434 0.090175,0.59145 0,0.8158 -0.090176,0.22434 -0.1639555,0.0408 -0.1639555,-0.4079 z m 194.7106527,0 c 0,-0.448694 0.0738,-0.632254 0.16396,-0.4079 0.0902,0.22434 0.0902,0.59145 0,0.8158 -0.0902,0.22434 -0.16396,0.0408 -0.16396,-0.4079 z M 28.964319,43.661289 c 0.323592,-0.358952 0.661488,-0.652639 0.750879,-0.652639 0.08939,0 -0.102227,0.293687 -0.42582,0.652639 -0.323592,0.358951 -0.661488,0.652639 -0.750879,0.652639 -0.08939,0 0.102228,-0.293688 0.42582,-0.652639 z m 148.846381,-0.08158 -0.61924,-0.734219 0.73139,0.621635 c 0.40226,0.341898 0.73138,0.672297 0.73138,0.734219 0,0.261137 -0.2616,0.06835 -0.84353,-0.621635 z M 31.402265,40.887573 c 0.419894,-0.448689 0.836583,-0.815798 0.925974,-0.815798 0.08939,0 -0.18102,0.367109 -0.600914,0.815798 -0.419894,0.44869 -0.836582,0.815799 -0.925974,0.815799 -0.08939,0 0.18102,-0.367109 0.600914,-0.815799 z m 143.976765,-0.08158 -0.78804,-0.897379 0.89391,0.791101 c 0.8355,0.739403 1.04298,1.003656 0.78805,1.003656 -0.0582,0 -0.46049,-0.40382 -0.89392,-0.897378 z m -6.00945,-6.03691 -0.95472,-1.060539 1.05644,0.95843 c 0.58104,0.527137 1.05644,1.004379 1.05644,1.060539 0,0.252101 -0.26821,0.03014 -1.15816,-0.95843 z M 37.578397,34.687504 c 0.419894,-0.448689 0.836582,-0.815799 0.925973,-0.815799 0.08939,0 -0.18102,0.36711 -0.600914,0.815799 -0.419894,0.448689 -0.836582,0.815798 -0.925974,0.815798 -0.08939,0 0.181021,-0.367109 0.600915,-0.815798 z m 2.763006,-2.447396 c 0.323593,-0.358951 0.661489,-0.652639 0.750881,-0.652639 0.08939,0 -0.102228,0.293688 -0.425822,0.652639 -0.323593,0.358951 -0.66149,0.652639 -0.750881,0.652639 -0.08939,0 0.102228,-0.293688 0.425822,-0.652639 z m 126.092207,-0.08158 -0.61923,-0.734219 0.73138,0.621635 c 0.68732,0.584183 0.87937,0.846803 0.61924,0.846803 -0.0617,0 -0.39081,-0.330399 -0.73139,-0.734219 z M 96.657967,9.1816307 c 0.223478,-0.09052 0.58917,-0.09052 0.812649,0 0.223478,0.09052 0.04063,0.164591 -0.406325,0.164591 -0.446957,0 -0.629803,-0.07407 -0.406324,-0.164591 z m 13.002383,0 c 0.22347,-0.09052 0.58917,-0.09052 0.81264,0 0.22348,0.09052 0.0406,0.164591 -0.40632,0.164591 -0.44696,0 -0.6298,-0.07407 -0.40632,-0.164591 z"
         style="fill:#d0d0d0;stroke-width:1" />
      <path
         id="path36"
         d="m 98.445794,204.62937 c 0.491653,-0.0748 1.296179,-0.0748 1.787826,0 0.49165,0.0748 0.0894,0.13595 -0.893917,0.13595 -0.9833,0 -1.385561,-0.0612 -0.893909,-0.13595 z m 8.451546,0 c 0.49165,-0.0748 1.29617,-0.0748 1.78783,0 0.49165,0.0748 0.0894,0.13595 -0.89392,0.13595 -0.9833,0 -1.38556,-0.0612 -0.89391,-0.13595 z m -12.996193,-0.31872 c 0.316273,-0.0827 0.755103,-0.0773 0.975178,0.0121 0.220075,0.0894 -0.03869,0.15708 -0.57504,0.15043 -0.536348,-0.007 -0.716412,-0.0798 -0.400138,-0.16252 z m 18.528393,0 c 0.31627,-0.0827 0.7551,-0.0773 0.97518,0.0121 0.22007,0.0894 -0.0387,0.15708 -0.57504,0.15043 -0.53635,-0.007 -0.71642,-0.0798 -0.40014,-0.16252 z m -21.277269,-0.3231 c 0.234651,-0.0943 0.515018,-0.0827 0.623032,0.0258 0.108014,0.10843 -0.08398,0.18555 -0.426641,0.17139 -0.378678,-0.0157 -0.455701,-0.093 -0.196391,-0.19715 z m 24.379459,0 c 0.23465,-0.0943 0.51502,-0.0827 0.62303,0.0258 0.10802,0.10843 -0.084,0.18555 -0.42664,0.17139 -0.37867,-0.0157 -0.4557,-0.093 -0.19639,-0.19715 z m -30.55559,-0.97896 c 0.23465,-0.0943 0.515014,-0.0827 0.623032,0.0258 0.108014,0.10843 -0.08398,0.18556 -0.426641,0.17139 -0.378678,-0.0157 -0.455701,-0.093 -0.196391,-0.19715 z m 36.73172,0 c 0.23465,-0.0943 0.51502,-0.0827 0.62304,0.0258 0.10801,0.10843 -0.084,0.18556 -0.42664,0.17139 -0.37868,-0.0157 -0.45571,-0.093 -0.1964,-0.19715 z M 97.55188,199.44788 C 86.212094,198.33956 77.605249,196.3082 68.459052,192.58148 40.408024,181.15178 19.405217,157.02044 12.263246,128.01487 9.2908703,115.94321 8.7855143,103.10861 10.792072,90.65129 c 1.192664,-7.404417 4.110595,-16.789593 7.497846,-24.115918 9.353593,-20.231 27.164899,-37.511389 47.934405,-46.50559 22.641349,-9.804799 48.113727,-10.5965653 71.309877,-2.216549 24.45024,8.833078 44.51121,27.643677 54.64869,51.242509 18.51483,43.100308 2.28338,92.750538 -38.26082,117.035658 -11.16487,6.68751 -23.30192,10.92027 -36.54156,12.74374 -3.68397,0.50739 -16.76933,0.91175 -19.82863,0.61274 z m 35.98161,-20.00047 c 5.89696,-1.55607 9.93443,-4.91854 11.02227,-9.17953 l 0.39118,-1.5322 3.44494,-0.20146 c 10.94016,-0.63976 17.1325,-5.06492 17.8378,-12.74718 l 0.23482,-2.55779 1.78783,-0.56078 c 4.55956,-1.4302 7.54314,-3.76054 9.16798,-7.1607 0.897,-1.87705 1.0289,-2.49353 1.0198,-4.76644 -0.009,-2.24325 -0.32971,-4.20246 -0.95632,-5.84173 -0.10808,-0.28273 0.55063,-0.6063 2.04962,-1.0068 6.24358,-1.66815 10.34901,-5.51804 11.1495,-10.4555 0.49793,-3.07123 -0.38264,-7.1703 -2.40046,-11.17426 l -0.77766,-1.5431 0.77568,-3.42635 c 1.45182,-6.41303 1.82936,-10.600004 1.66246,-18.437057 -0.18421,-8.650527 -0.98344,-13.483044 -3.49836,-21.152729 -6.81896,-20.795568 -22.64432,-37.551672 -43.01833,-45.548391 -1.87281,-0.735067 -3.52583,-1.33185 -3.67339,-1.326185 -0.14756,0.0057 1.04855,0.703173 2.65802,1.550017 3.9681,2.08787 6.81427,4.192762 9.42277,6.968621 4.1525,4.418931 5.05072,8.421472 2.65764,11.842662 l -0.66843,0.955594 -0.38765,-2.309585 c -0.53766,-3.203355 -2.07385,-5.944509 -5.01143,-8.942326 -4.74956,-4.846956 -11.94332,-8.528574 -19.4143,-9.935843 -3.83429,-0.722247 -9.99723,-0.71458 -12.76667,0.01588 -6.55514,1.728975 -10.12802,5.640759 -9.66047,10.576805 0.0954,1.007145 0.27164,2.12486 0.39163,2.483811 0.42858,1.282048 -4.04991,-3.834426 -4.85886,-5.551028 -1.97706,-4.195349 -0.55382,-8.083703 3.7692,-10.297695 0.69126,-0.35402 1.25683,-0.73415 1.25683,-0.844734 0,-0.343427 -6.81427,0.235129 -10.409771,0.883826 -22.088602,3.98521 -48.260074,22.313866 -57.054953,39.95727 -3.740036,7.502884 -4.045498,13.182056 -0.956839,17.789576 l 1.130817,1.686902 -3.084708,3.424628 c -5.801555,6.440854 -9.486421,12.429857 -11.073419,17.997597 -1.583716,5.556234 -0.754593,10.430854 2.305589,13.555154 1.018443,1.03977 1.171564,1.35788 0.863902,1.79475 -0.205667,0.29204 -0.991116,1.55889 -1.745442,2.81522 -7.762915,12.92914 -5.210147,23.0352 6.561376,25.97559 1.072081,0.2678 3.58094,0.44852 6.266748,0.45144 l 4.478924,0.005 0.327904,1.30527 c 1.173962,4.67313 5.026216,8.17029 10.228056,9.28523 3.219488,0.69006 3.1509,0.66054 2.910122,1.25224 -3.282142,8.06558 -2.907567,14.05654 1.125255,17.99727 3.172988,3.10052 7.209232,4.38153 13.832665,4.39015 4.603083,0.006 7.326803,-0.3265 11.996468,-1.46442 l 2.569739,-0.62621 1.519744,0.979 c 4.140849,2.66747 10.211108,3.496 17.994573,2.45607 3.26742,-0.43655 3.80171,-0.42506 7.31383,0.15735 2.08391,0.34557 4.22775,0.69476 4.7641,0.77597 0.53634,0.0812 3.46188,0.0967 6.50119,0.0344 4.22344,-0.0866 6.11541,-0.26881 8.02649,-0.7731 z m -31.85491,-18.66832 c -3.232581,-0.61797 -6.270578,-3.04956 -7.611149,-6.09189 -0.841108,-1.90884 -1.101357,-5.0696 -0.592678,-7.19823 0.365591,-1.52986 2.157206,-4.86794 2.453228,-4.57078 0.07185,0.0721 -0.09644,0.90877 -0.373968,1.85919 -0.748964,2.56486 -0.49804,6.60082 0.537843,8.65089 2.746883,5.43623 9.160094,5.81757 13.997154,0.83229 1.53866,-1.58581 3.55331,-5.10669 3.55331,-6.20991 0,-0.31969 0.14628,-0.67201 0.32506,-0.78293 0.63812,-0.39591 0.37221,4.58065 -0.348,6.51306 -1.7704,4.75013 -7.16433,7.91144 -11.9408,6.99831 z M 71.375395,132.47773 c -3.233133,-1.07012 -5.911152,-2.73863 -8.472309,-5.27858 -5.097525,-5.05533 -7.571303,-11.84215 -6.746724,-18.50966 0.171403,-1.38596 0.376646,-2.58519 0.456094,-2.66494 0.07945,-0.0798 0.144453,1.03874 0.144453,2.48555 0,5.89993 3.199002,11.41388 8.290468,14.28984 6.985012,3.94554 14.589289,2.18949 18.700616,-4.31852 2.837373,-4.49142 2.623855,-11.75082 -0.481897,-16.38384 -1.470908,-2.194224 -0.426248,-1.66488 1.570444,0.79576 3.411704,4.20446 5.038715,8.3633 5.309291,13.57121 0.199307,3.83614 -0.144726,5.91378 -1.442162,8.70933 -1.191516,2.56732 -3.965541,5.40027 -6.527992,6.66665 -1.960382,0.96883 -2.456845,1.07099 -5.577592,1.14774 -2.616297,0.0643 -3.850246,-0.0563 -5.22269,-0.51054 z m 36.021825,-19.22681 c -2.27276,-2.61324 -4.1568,-7.89925 -4.1568,-11.66265 0,-0.78708 0.22274,-2.494034 0.49498,-3.793224 1.96873,-9.395282 10.68421,-15.386083 19.15976,-13.169927 6.43125,1.681619 11.48736,7.576527 12.58874,14.677177 0.37749,2.433664 0.0982,6.824304 -0.41384,6.506604 -0.16438,-0.10199 -0.29887,-0.51302 -0.29887,-0.91341 0,-1.44219 -1.0062,-4.66815 -2.25457,-7.228334 -1.63116,-3.345197 -4.22166,-6.231682 -6.90187,-7.69045 -1.93363,-1.052423 -2.24489,-1.120173 -5.14618,-1.120173 -2.61843,0 -3.33523,0.121609 -4.71336,0.799652 -3.32979,1.63827 -6.19311,5.466249 -7.70078,10.295211 -0.88712,2.841404 -1.10851,8.203454 -0.4639,11.235974 0.28354,1.33394 0.46818,2.47288 0.41031,2.53098 -0.0579,0.0581 -0.3295,-0.15225 -0.60362,-0.46743 z m 56.22301,-1.28748 c -0.82589,-0.21666 -0.69763,-0.75402 0.17997,-0.75402 1.25866,0 4.06003,-1.61298 5.29238,-3.04726 4.14162,-4.82025 4.00133,-11.637384 -0.31804,-15.454187 -2.11877,-1.872244 -4.48578,-2.460967 -6.99267,-1.739214 l -1.10267,0.31747 0.77976,-0.838706 c 2.01573,-2.168093 5.4727,-2.849536 7.93107,-1.563381 1.73147,0.90586 3.51464,3.329079 4.26505,5.795949 0.70311,2.311405 0.76922,6.398559 0.14069,8.697659 -1.58401,5.79415 -6.14549,9.64293 -10.17554,8.58569 z M 75.122773,70.850431 c -4.20893,-0.71896 -6.269125,-1.509861 -8.776608,-3.369301 -3.580225,-2.654938 -6.377717,-6.87218 -7.142292,-10.767063 -0.207609,-1.057595 -0.117509,-0.985146 1.217481,0.978958 2.816933,4.14441 7.12275,7.507276 11.078276,8.652191 2.626981,0.76037 6.355522,0.565893 8.39985,-0.438133 5.649047,-2.774394 8.091759,-10.545568 5.79247,-18.427977 -1.054301,-3.614347 -2.678555,-6.781076 -4.510643,-8.794189 -0.938665,-1.031413 -0.766445,-1.119355 0.702593,-0.358766 2.846023,1.473519 5.937515,4.663598 7.643824,7.887579 2.693876,5.089944 2.70132,11.676552 0.01889,16.728796 -1.984576,3.737878 -6.612982,7.171963 -10.284854,7.630941 -2.716718,0.339585 -3.475261,0.390344 -4.138996,0.276964 z M 39.16223,180.47072 c -0.404332,-0.51756 -0.392835,-0.5291 0.122729,-0.1232 0.541468,0.42629 0.713662,0.69426 0.446125,0.69426 -0.0675,0 -0.323483,-0.25698 -0.568854,-0.57106 z m 128.11492,0.44786 c 0,-0.0678 0.25598,-0.32474 0.56885,-0.57106 0.51557,-0.4059 0.52706,-0.39436 0.12273,0.1232 -0.42465,0.54357 -0.69158,0.71643 -0.69158,0.44786 z m -132.795537,-4.85317 -2.266699,-2.36582 2.356682,2.27549 c 1.296175,1.25151 2.356681,2.31613 2.356681,2.36581 0,0.23936 -0.341354,-0.0781 -2.446664,-2.27548 z m 137.833957,0.0816 c 1.24189,-1.25633 2.33112,-2.28424 2.42051,-2.28424 0.0894,0 -0.85356,1.02791 -2.09545,2.28424 -1.24189,1.25633 -2.33112,2.28424 -2.42051,2.28424 -0.0894,0 0.85356,-1.02791 2.09545,-2.28424 z M 30.060564,171.33378 c -0.404332,-0.51756 -0.392834,-0.52911 0.122728,-0.12321 0.31287,0.24632 0.568854,0.5033 0.568854,0.57106 0,0.26858 -0.266934,0.0957 -0.691582,-0.44785 z m 146.318246,0.44785 c 0,-0.0678 0.25599,-0.32474 0.56886,-0.57106 0.51556,-0.4059 0.52706,-0.39435 0.12273,0.12321 -0.42465,0.54356 -0.69159,0.71643 -0.69159,0.44785 z M 26.809969,167.41794 c -0.404332,-0.51756 -0.392835,-0.5291 0.122728,-0.1232 0.31287,0.24632 0.568854,0.5033 0.568854,0.57106 0,0.26857 -0.266934,0.0957 -0.691582,-0.44786 z m 152.819441,0.44786 c 0,-0.0678 0.25598,-0.32474 0.56885,-0.57106 0.51557,-0.4059 0.52707,-0.39436 0.12273,0.1232 -0.42464,0.54357 -0.69158,0.71643 -0.69158,0.44786 z M 7.6985824,125.37712 c 0.015598,-0.38014 0.092622,-0.45746 0.1963901,-0.19715 0.0939,0.23556 0.082352,0.51701 -0.025663,0.62545 -0.1080146,0.10843 -0.184842,-0.0843 -0.1707271,-0.4283 z m 191.4600676,0 c 0.0156,-0.38014 0.0926,-0.45746 0.19638,-0.19715 0.0939,0.23556 0.0824,0.51701 -0.0256,0.62545 -0.10802,0.10843 -0.18485,-0.0843 -0.17073,-0.4283 z m 0.65011,-3.91583 c 0.0156,-0.38015 0.0926,-0.45747 0.19639,-0.19715 0.0939,0.23556 0.0824,0.51701 -0.0257,0.62544 -0.10801,0.10844 -0.18484,-0.0843 -0.17072,-0.42829 z M 6.7234038,119.17705 c 0.015598,-0.38014 0.092623,-0.45746 0.1963901,-0.19715 0.0939,0.23556 0.082352,0.51701 -0.025663,0.62545 -0.1080146,0.10843 -0.184842,-0.0843 -0.1707271,-0.4283 z m 193.4104162,0 c 0.0156,-0.38014 0.0926,-0.45746 0.19639,-0.19715 0.0939,0.23556 0.0824,0.51701 -0.0257,0.62545 -0.10801,0.10843 -0.18484,-0.0843 -0.17072,-0.4283 z M 6.4360516,116.26737 c 0.00662,-0.53843 0.079477,-0.71919 0.1618933,-0.40169 0.082417,0.3175 0.076996,0.75803 -0.012045,0.97896 -0.089041,0.22093 -0.1564731,-0.0388 -0.1498483,-0.57727 z m 194.0605384,0 c 0.007,-0.53843 0.0795,-0.71919 0.16189,-0.40169 0.0824,0.3175 0.077,0.75803 -0.0121,0.97896 -0.089,0.22093 -0.15647,-0.0388 -0.14985,-0.57727 z M 6.1450308,111.20942 c 0,-0.98712 0.060938,-1.39094 0.1354166,-0.89738 0.074479,0.49356 0.074479,1.3012 0,1.79476 -0.074479,0.49356 -0.1354166,0.0897 -0.1354166,-0.89738 z m 194.7106592,0 c 0,-0.98712 0.0609,-1.39094 0.13541,-0.89738 0.0745,0.49356 0.0745,1.3012 0,1.79476 -0.0745,0.49356 -0.13541,0.0897 -0.13541,-0.89738 z M 6.1450308,102.72511 c 0,-0.98711 0.060938,-1.39093 0.1354166,-0.89738 0.074479,0.49356 0.074479,1.3012 0,1.79476 -0.074479,0.49356 -0.1354166,0.0897 -0.1354166,-0.89738 z m 194.7106592,0 c 0,-0.98711 0.0609,-1.39093 0.13541,-0.89738 0.0745,0.49356 0.0745,1.3012 0,1.79476 -0.0745,0.49356 -0.13541,0.0897 -0.13541,-0.89738 z M 6.4360516,97.667156 c 0.00662,-0.53843 0.079477,-0.71919 0.1618933,-0.40169 0.082417,0.3175 0.076996,0.75803 -0.012045,0.97896 -0.089041,0.22093 -0.1564731,-0.0388 -0.1498483,-0.57727 z m 194.0605384,0 c 0.007,-0.53843 0.0795,-0.71919 0.16189,-0.40169 0.0824,0.3175 0.077,0.75803 -0.0121,0.97896 -0.089,0.22093 -0.15647,-0.0388 -0.14985,-0.57727 z M 6.7234038,94.70309 c 0.015598,-0.380145 0.092623,-0.457467 0.1963901,-0.197152 0.0939,0.23556 0.082352,0.517014 -0.025663,0.625447 -0.1080146,0.108432 -0.184842,-0.0843 -0.1707271,-0.428295 z m 193.4104162,0 c 0.0156,-0.380145 0.0926,-0.457467 0.19639,-0.197152 0.0939,0.23556 0.0824,0.517014 -0.0257,0.625447 -0.10801,0.108432 -0.18484,-0.0843 -0.17072,-0.428295 z M 7.6985824,88.503021 c 0.015598,-0.380146 0.092622,-0.457467 0.1963901,-0.197153 0.0939,0.235561 0.082352,0.517011 -0.025663,0.625447 -0.1080146,0.108433 -0.184842,-0.0843 -0.1707271,-0.428294 z m 191.4600676,0 c 0.0156,-0.380146 0.0926,-0.457467 0.19638,-0.197153 0.0939,0.235561 0.0824,0.517011 -0.0256,0.625447 -0.10802,0.108433 -0.18485,-0.0843 -0.17073,-0.428294 z M 26.526372,46.801278 c 0,-0.06776 0.255985,-0.324737 0.568855,-0.571059 0.515562,-0.405899 0.52706,-0.394357 0.122727,0.123205 -0.424647,0.543567 -0.691582,0.716428 -0.691582,0.447854 z M 179.913,46.353424 c -0.40433,-0.517562 -0.39283,-0.529104 0.12273,-0.123205 0.54147,0.426294 0.71367,0.694264 0.44613,0.694264 -0.0675,0 -0.32348,-0.256976 -0.56886,-0.571059 z M 29.776968,42.885445 c 0,-0.06776 0.255984,-0.324737 0.568854,-0.571059 0.515563,-0.405899 0.52706,-0.394357 0.122728,0.123205 -0.424648,0.543566 -0.691582,0.716428 -0.691582,0.447854 z M 176.66241,42.437591 c -0.40433,-0.517562 -0.39284,-0.529104 0.12273,-0.123205 0.54147,0.426294 0.71366,0.694264 0.44612,0.694264 -0.0675,0 -0.32348,-0.256977 -0.56885,-0.571059 z M 34.490331,37.787539 c 1.24189,-1.25633 2.331119,-2.284237 2.420511,-2.284237 0.08939,0 -0.853562,1.027907 -2.095452,2.284237 -1.241889,1.256329 -2.331119,2.284236 -2.42051,2.284236 -0.08939,0 0.853561,-1.027907 2.095451,-2.284236 z m 137.978379,0.08158 -2.1035,-2.202656 2.19415,2.11165 c 2.03803,1.96139 2.34275,2.293663 2.1035,2.293663 -0.0499,0 -1.03723,-0.991196 -2.19415,-2.202657 z M 38.878635,33.748502 c 0,-0.06776 0.255984,-0.324739 0.568854,-0.571059 0.515564,-0.4059 0.527061,-0.394358 0.122729,0.123203 -0.424648,0.543566 -0.691583,0.716428 -0.691583,0.447856 z M 167.56074,33.300646 c -0.40433,-0.517561 -0.39283,-0.529103 0.12273,-0.123203 0.31287,0.24632 0.56886,0.503296 0.56886,0.571059 0,0.268572 -0.26694,0.09571 -0.69159,-0.447856 z M 84.97614,10.80643 c 0.23465,-0.09426 0.515014,-0.08267 0.623032,0.02576 0.108014,0.108434 -0.08398,0.185559 -0.426641,0.17139 C 84.793853,10.98792 84.71683,10.9106 84.97614,10.806428 Z m 36.73172,0 c 0.23465,-0.09426 0.51502,-0.08267 0.62304,0.02576 0.10801,0.108434 -0.084,0.185559 -0.42664,0.17139 -0.37868,-0.01566 -0.45571,-0.09298 -0.1964,-0.197152 z M 91.152271,9.8274717 c 0.234651,-0.09426 0.515018,-0.08267 0.623032,0.02576 0.108014,0.108433 -0.08398,0.1855583 -0.426641,0.1713893 -0.378678,-0.01566 -0.455701,-0.09298 -0.196391,-0.1971513 z m 24.379459,0 c 0.23465,-0.09426 0.51502,-0.08267 0.62303,0.02576 0.10802,0.108433 -0.084,0.1855583 -0.42664,0.1713893 -0.37867,-0.01566 -0.4557,-0.09298 -0.19639,-0.1971513 z M 93.901147,9.4979297 c 0.316273,-0.08274 0.755103,-0.0773 0.975178,0.01209 0.220075,0.08939 -0.03869,0.15708 -0.57504,0.150429 -0.536348,-0.0066 -0.716412,-0.07978 -0.400138,-0.162519 z m 18.528393,0 c 0.31627,-0.08274 0.7551,-0.0773 0.97518,0.01209 0.22007,0.08939 -0.0387,0.15708 -0.57504,0.150429 -0.53635,-0.0066 -0.71642,-0.07978 -0.40014,-0.162519 z M 98.445794,9.1640187 c 0.491653,-0.07477 1.296179,-0.07477 1.787826,0 0.49165,0.07477 0.0894,0.135941 -0.893917,0.135941 -0.9833,0 -1.385561,-0.06117 -0.893909,-0.135941 z m 8.451546,0 c 0.49165,-0.07477 1.29617,-0.07477 1.78783,0 0.49165,0.07477 0.0894,0.135941 -0.89392,0.135941 -0.9833,0 -1.38556,-0.06117 -0.89391,-0.135941 z"
         style="fill:#5d5d5d;stroke-width:1" />
      <path
         id="path34"
         d="M 97.370091,204.54584 C 84.145538,203.63945 72.72385,200.57814 60.820153,194.74949 50.645686,189.76755 43.065388,184.30454 34.80578,176.00127 c -8.307589,-8.35149 -13.737806,-15.9439 -18.683591,-26.123 -6.8236587,-14.04401 -9.8265356,-27.15712 -9.8265356,-42.911 0,-15.753889 3.0028769,-28.867 9.8265356,-42.911016 C 21.067974,53.87716 26.498191,46.284744 34.80578,37.933252 43.065388,29.629994 50.645686,24.166975 60.820153,19.185043 74.809945,12.334936 87.872427,9.3204197 103.56548,9.3204197 c 15.69305,0 28.75554,3.0145163 42.74533,9.8646233 10.17446,4.981932 17.75476,10.444951 26.01437,18.748209 8.30759,8.351492 13.73781,15.943908 18.68359,26.123002 5.05803,10.410106 7.92247,20.147081 9.31174,31.652982 0.62059,5.139824 0.69192,16.511614 0.13405,21.373934 -2.6659,23.23581 -11.92384,42.62692 -28.12938,58.9181 -8.25961,8.30327 -15.83991,13.76628 -26.01437,18.74822 -13.07589,6.40261 -25.44333,9.44097 -40.30738,9.90249 -2.68175,0.0833 -6.566747,0.0355 -8.633339,-0.10614 z m 20.010419,-5.7107 c 29.90752,-4.11911 55.54713,-21.34844 70.38017,-47.29411 10.29589,-18.0094 14.23081,-39.97345 10.85011,-60.563421 C 192.13448,51.534023 161.03157,20.373555 121.25668,13.480364 114.47127,12.304417 108.51226,11.891704 101.61512,12.120017 70.691142,13.143677 42.757648,28.489594 25.491422,53.940351 10.802141,75.592639 5.9902078,102.53828 12.263246,128.01487 c 7.141971,29.00557 28.144778,53.13691 56.195806,64.56661 9.146197,3.72672 17.753042,5.75808 29.092828,6.8664 3.0593,0.29901 16.14466,-0.10535 19.82863,-0.61274 z"
         style="fill:#020202;stroke-width:1" />
    </g>
  </g>
</svg>
