<?xml version="1.0" encoding="UTF-8" standalone="no"?>
<svg
   xmlns:dc="http://purl.org/dc/elements/1.1/"
   xmlns:cc="http://creativecommons.org/ns#"
   xmlns:rdf="http://www.w3.org/1999/02/22-rdf-syntax-ns#"
   xmlns:svg="http://www.w3.org/2000/svg"
   xmlns="http://www.w3.org/2000/svg"
   xmlns:sodipodi="http://sodipodi.sourceforge.net/DTD/sodipodi-0.dtd"
   xmlns:inkscape="http://www.inkscape.org/namespaces/inkscape"
   inkscape:version="1.0 (4035a4fb49, 2020-05-01)"
   id="svg4642"
   version="1.1"
   viewBox="0 0 61.118749 54.239587"
   height="205"
   width="231"
   sodipodi:docname="drawing2.svg">
  <defs
     id="defs4636" />
  <sodipodi:namedview
     units="px"
     inkscape:window-maximized="0"
     inkscape:window-y="0"
     inkscape:window-x="0"
     inkscape:window-height="728"
     inkscape:window-width="1350"
     showguides="false"
     showgrid="false"
     inkscape:document-rotation="0"
     inkscape:current-layer="layer1"
     inkscape:document-units="px"
     inkscape:cy="127.89881"
     inkscape:cx="222.95344"
     inkscape:zoom="1.7674523"
     inkscape:pageshadow="2"
     inkscape:pageopacity="0.0"
     borderopacity="1.0"
     bordercolor="#666666"
     pagecolor="#ffffff"
     id="base">
    <inkscape:grid
       type="xygrid"
       id="grid4750" />
  </sodipodi:namedview>
  <metadata
     id="metadata4639">
    <rdf:RDF>
      <cc:Work
         rdf:about="">
        <dc:format>image/svg+xml</dc:format>
        <dc:type
           rdf:resource="http://purl.org/dc/dcmitype/StillImage" />
        <dc:title></dc:title>
      </cc:Work>
    </rdf:RDF>
  </metadata>
  <g
     id="layer1"
     inkscape:groupmode="layer"
     inkscape:label="robot"
     style="display:inline">
    <g
       id="g3608"
       transform="matrix(0.19309446,0,0,0.205403,-6.7553387,-7.4547477)"
       style="display:inline">
      <path
         style="display:inline;fill:#f9dc0e;stroke-width:1.33333"
         d="M 159.33333,256.40809 158,258.50675 l -8.33334,-3.3945 -8.33333,-3.39452 v -1.65882 -1.65881 l 3.88144,-5.35817 3.88144,-5.35818 3.96539,-2.82359 3.9654,-2.82362 6.15317,-2.63756 6.15316,-2.63756 v -0.94238 -0.9424 l -2.20665,-2.43832 -2.20666,-2.43832 2.20666,-2.43832 2.20665,-2.43832 v -4.4147 -4.41468 L 167,204.57008 l -2.33334,-1.7239 1.66667,-1.68976 L 168,199.46666 V 198.4 197.33333 h -14.5355 -14.53549 l -17.79784,-6.12349 -17.79784,-6.12348 -3,-3.2842 -2.999998,-3.2842 V 169.25898 160 l -0.0087,-4.65282 -2.001231,-0.19074 -3.164259,1.45867 -1.174692,1.88821 -1.534535,4.40196 -1.534533,4.40197 2.209528,1.61565 2.209529,1.61564 -0.792053,2.06407 -0.792054,2.06405 h -1.899194 -1.899195 l -0.809319,2.10906 -0.809318,2.10904 v 1.76426 1.76426 l 5.871934,3.44117 5.871936,3.44119 2.898524,5.98754 2.89852,5.98756 -0.44805,2.36463 -0.44804,2.36463 -4.187189,0.40772 -4.187191,0.40773 -4.801888,-2.00636 -4.80189,-2.00636 v -2.43803 -2.43802 L 81.924393,194.96334 79.848788,192 h -3.96722 -3.967219 l -4.290509,1.82816 -4.290508,1.82816 -2.936362,3.19004 -2.936363,3.19002 -2.120571,5.07524 -2.12057,5.07524 -4.271058,-0.93808 -4.271056,-0.93808 -4.348639,-2.07372 -4.34864,-2.07372 0.815084,-2.7483 0.815084,-2.7483 3.193558,-5.5685 3.193559,-5.56851 4.579129,-3.77451 4.579129,-3.7745 0.927299,-6.99032 L 55.010214,168 h -1.505107 -1.505108 v -2.56891 -2.56889 l 2.066579,-0.43111 2.066578,-0.43109 3.440995,-9.33334 3.440994,-9.33333 -0.17344,-4.33333 -0.17344,-4.33334 h 2.152886 2.152886 L 76.147873,125 l 9.173837,-9.66667 0.0059,-2.3751 0.0059,-2.3751 4.749441,0.31986 4.749441,0.31986 1.230142,-1.94476 1.230029,-1.94476 0.02042,-30.393938 0.02042,-30.503603 c 0.388088,-1.143191 -0.460133,-2.804271 1.662671,-4.038763 2.776826,-2.284747 3.170916,-1.626084 4.440876,-1.95512 l 32.49746,-0.88762 32.49747,-0.88762 h 26.18424 26.18423 l 17.9332,1.405912 18.18907,1.259691 5.58489,0.395451 c 7.91084,1.191024 6.81305,2.552615 7.80421,5.503153 l 0.35501,5.838803 V 73.86817 94.666665 h 1.2406 1.2406 l 0.42607,-3 0.42606,-3 4,-0.444886 4,-0.444884 2.31178,-2.075582 2.31176,-2.075583 -0.77508,-3.088173 -0.77508,-3.088173 3.79664,-0.92999 3.79665,-0.929988 0.83776,-1.277558 0.83777,-1.277559 -3.15504,-5.517145 -3.15504,-5.517145 -0.016,-6.921311 -0.016,-6.92131 1.62951,-1.007092 1.62951,-1.007092 5.37049,0.318625 5.37049,0.318625 3.34082,1.303231 3.34081,1.303231 -0.475,5.972355 -0.47501,5.972358 4.76785,4.767849 4.76785,4.767849 3.033,-0.871278 3.03302,-0.871279 3.50062,-3.730913 3.50062,-3.730914 0.51568,-1.547041 0.51568,-1.547043 7.64585,0.89862 7.64585,0.89862 2.2373,1.635943 2.23728,1.635944 -3.54726,6.052947 -3.54726,6.052946 -5.77315,2.794731 -5.77327,2.794732 h -4.2186 -4.2186 l -3.0271,5.666666 -3.0271,5.666667 V 97.333331 102 l -3.66328,0.0594 -3.66328,0.0594 -5.26777,5.14384 -5.26777,5.14384 -0.40228,3.4634 -0.40228,3.4634 -5.33334,0.77064 -5.33333,0.77064 -5.03445,3.04805 -5.03446,3.04806 -1.34578,2.51464 -1.3458,2.51464 h -2.52148 -2.52147 l -0.43161,27.19638 -0.43162,27.19639 -2.48689,2.74495 -2.48688,2.74493 -5.51312,0.81168 -5.5131,0.81167 -26.23835,0.92978 -26.23833,0.92979 -0.85404,0.85404 -0.85406,0.85404 1.72567,2.76323 1.14079,2.69011 -1.0484,1.70639 L 200,205.86666 v 5.73334 5.73333 h 1.33333 1.33333 V 220 222.66666 H 201.33333 200 v 3.97291 3.97289 l 5.66666,2.84424 5.66667,2.84423 3.12668,2.84953 3.12669,2.84953 1.87331,3.60046 1.87332,3.60045 v 1.28844 1.28843 l -3.66667,1.23944 -3.66666,1.23944 -5.66667,-2.08259 -5.66667,-2.0826 v -0.94343 -0.94344 l -3.58732,-4.26328 -3.58732,-4.26329 -8.74601,0.62788 -8.74601,0.62787 -5.49895,2.80797 c -4.53373,1.78129 -4.0793,1.29738 -6.95577,4.8205 l -4.87862,5.74718 z m 27.5244,-77.74143 h 10.32439 l 2.07561,-2.96334 2.0756,-2.96334 v -7.93168 -7.93166 L 199.12668,154.43832 196.92002,152 h -9.35502 -9.35503 l -2.43832,2.20665 -2.43832,2.20665 v 9.52668 9.52668 l 1.6,1.6 1.6,1.6 z m 39.63327,-1.72833 10.01958,-0.67595 1.74471,-2.38602 L 240,171.49032 v -8.20518 -8.20517 l -2.63411,-2.38384 -2.63411,-2.38383 -9.6607,0.76671 -9.66072,0.76672 -1.70518,2.33197 L 212,156.50968 v 8.31658 8.31659 l 2.2357,2.23572 2.23572,2.23571 z m -131.157668,-23.605 2.159334,1.52129 -0.103573,-5.58759 L 95.999998,152 h -0.666666 0.666666 l -1.333333,0.66666 v 0.66667 z m 109.085688,-17.58937 36.24764,-0.60232 3.11288,-1.67815 3.11288,-1.67814 1.88712,-4.51652 1.88712,-4.51652 V 99.999998 77.247682 l -1.88712,-4.51652 -1.88712,-4.516519 -3.07761,-1.647087 -3.07761,-1.647088 -35.05858,0.876352 -35.05856,0.876352 -2.54848,1.591552 -2.54848,1.591552 -1.42822,3.134598 -1.42822,3.134599 0.005,25.603927 0.005,25.60393 2.74737,4.50648 2.74738,4.50647 36.24764,-0.60232 z"
         id="path3612"
         sodipodi:nodetypes="cccccccccccccccccccccccccccccccccccccccccccccccccccccccccccccccccccccccccccccccccccccccccccccccccccccccccccccccccccccccccccccccccccccccccccccccccccccccccccccccccccccccccccccccccccccccccccccccccccccccccccccccccccccccccccccccccccccccccccccccccccccccccccccccccccccccccccccccccccccccccccccccccccccc" />
      <path
         style="display:inline;fill:#962f06;stroke-width:1.33333"
         d="m 181.23241,295.98034 c -10.25199,1.2885 -13.30371,-1.55967 -16.06397,-6.32779 l -2.73378,-6.00108 -0.0753,-0.46111 -1.02601,-6.2809 0.1024,-7.45476 0.10253,-7.45476 1.56718,-5.19165 c 1.20371,-6.28091 3.75915,-6.82022 8.22789,-10.14031 7.85355,-2.55895 12.97255,-3.13232 19.43905,-1.57208 l 4.57734,2.90788 2.41698,1.99616 c 5.02705,5.4697 4.0493,5.81272 5.13487,11.58228 l 0.0456,10.43085 c 0.59893,6.58037 1.65759,8.10606 -1.70221,15.73916 -2.38883,6.1915 -6.95367,8.01709 -9.91152,8.2084 l -10.10092,0.0196 z m -21.89908,-39.83067 -1.33333,2.1497 -8.33334,-3.35992 -8.33333,-3.35992 v -1.58972 -1.58971 l 3.98975,-5.50768 3.98973,-5.50768 5.01027,-3.3137 5.01025,-3.3137 4.59301,-1.59964 4.59302,-1.59962 0.51809,1.55429 0.51811,1.55429 14.88888,0.0293 14.88889,0.0293 6,2.72015 6,2.72014 3.12668,2.91724 3.12669,2.91724 1.87331,3.60045 1.87332,3.60046 v 1.2691 1.26912 l -3.66667,1.26856 -3.66666,1.26856 -5.33334,-2.33701 -5.33333,-2.33701 -3.72351,-4.80112 -3.7235,-4.80111 h -6.0194 -6.0194 l -6.1161,1.54005 -5.23037,2.20166 -5.29073,2.86184 -6.54366,7.39634 z m 27.33333,-31.47866 -11.33333,0.47529 -3.33333,-0.7009 -3.33334,-0.70092 -1.71106,-1.40568 -1.71108,-1.4057 0.40949,-1.22846 0.40948,-1.22847 18.30236,-0.23809 18.30236,-0.23808 -7.7e-4,2.19068 -7.8e-4,2.19068 -2.33333,0.90717 L 198,224.19572 Z m -134.39572,-12.77628 -0.937608,-0.10525 -2,-0.64772 -2,-0.64772 -5.561806,-1.98392 -5.561805,-1.98392 2.103389,-6.17311 2.103388,-6.17311 5.799453,-5.79945 5.799452,-5.79944 2.664535,1.42601 2.664533,1.42602 4.99443,-1.27687 4.994431,-1.27687 7.050017,-0.90502 7.050016,-0.90502 6.949984,3.42943 6.949983,3.42941 3.130106,4.64163 3.130102,4.64163 0.20323,4.39428 L 102,206 l -3.261735,0.46036 -3.261732,0.46037 -4.832697,-1.59493 -4.832696,-1.59494 -2.572238,-5.5321 -2.572237,-5.5321 -3.827772,-0.43744 -3.827772,-0.43744 -3.069465,0.77039 -3.069465,0.77039 -4.305702,3.623 -4.305702,3.62301 -2.52612,5.71072 L 53.208547,212 52.27094,211.8948 Z m 130.56376,-5.22807 h -12.99169 l -2.58608,-1.89098 -2.58608,-1.89099 0.95705,-0.95704 0.95704,-0.95705 18.04111,-0.15196 18.04109,-0.15198 -2.4e-4,1.69967 -2.4e-4,1.69967 c -2.8601,2.28137 -1.11556,1.4956 -6.84026,2.60066 z m -25.33129,-25.35374 -0.83675,-0.0204 -1.78332,-1.13036 -1.78332,-1.13038 0.44999,-3.18254 L 154,172.66666 h 3.31506 3.31508 l 0.4617,2.39739 0.46169,2.39739 -1.60669,1.93594 -1.6067,1.93595 -0.83673,-0.0204 z m 95.89795,-3.97959 h -1.07484 l -1.60675,-1.93601 -1.60676,-1.93602 0.86668,-2.73065 L 250.84637,168 h 2.31015 2.31014 l 1.6,1.6 1.6,1.6 v 0.97142 0.97143 l -2.09524,2.09524 -2.09524,2.09524 z m -166.078947,-3.08984 -3.989081,0.24349 -10.666667,-1.9516 -10.666666,-1.9516 -5,-1.34328 -5,-1.34329 v -2.77071 -2.7707 l 3.666667,0.7791 3.666666,0.77912 12,2.11539 12,2.11539 4.41646,0.67028 4.41646,0.67028 -0.427379,2.25732 L 91.311493,174 Z m 69.139147,-11.57683 h -1.87859 l -0.73759,-1.92212 -0.73758,-1.9221 0.46436,-2.41123 L 154.03652,154 h 3.29681 3.29681 l 0.4617,2.39738 0.46169,2.39739 -1.60669,1.93595 -1.6067,1.93594 z m -61.261448,-3.06608 -1.466552,0.48823 -1.866782,-2.27365 -1.86678,-2.27366 L 78.187412,147.77076 66.374825,140 h -1.85408 -1.85408 v -2.66667 -2.66667 h 2.595232 2.595231 l 7.920879,4.6423 7.920878,4.6423 6.896891,5.45168 6.89689,5.45168 -0.230225,2.12887 -0.595776,2.12887 z m 158.059808,-0.93392 h -2.41355 l -0.89356,-2.81534 -0.89356,-2.81534 2.03365,-2.03365 2.03366,-2.03365 2.13362,0.81874 2.13363,0.81876 0.7856,2.04722 0.78559,2.04722 -1.64576,1.98302 -1.64576,1.98302 z m -146.80227,-12.27042 -2.20902,0.41808 -0.79531,-1.28684 -0.79531,-1.28684 0.81972,-2.13615 0.81972,-2.13615 -3.43688,-7.02472 -3.436882,-7.02473 -4.823847,-5.63558 -4.823847,-5.63558 -1.221332,0.75482 -1.22133,0.75483 v -2.74536 -2.74536 h 2.873114 2.873115 l 5.146375,5.40997 5.146374,5.40996 4.05658,8.03605 4.05659,8.03605 -0.40941,4.20973 -0.40941,4.20974 z M 273.36633,132 h -2.69967 v -0.75432 -0.75433 l 1.43585,-2.68291 1.43586,-2.68292 -1.58099,-8.89609 -1.58097,-8.8961 0.29032,-12.666665 c 0.2646,1.985027 -0.90167,3.135375 0.87081,5.999995 l 2.7877,6 2.78769,6 0.87465,6 0.87464,6 -1.39812,3.66667 L 276.06599,132 Z m 22.22945,-12.23793 -3.73755,0.42873 1.59804,-2.55885 1.59803,-2.55886 -3.77792,-6.94128 -3.77792,-6.94129 -5.05276,-4.564854 -5.05275,-4.564857 -2.16504,0.830806 -2.16505,0.830806 0.47997,-2.527878 0.47996,-2.527878 3.65555,-0.421923 3.65553,-0.421924 6.33307,6.519107 6.33305,6.519105 3.09291,6.23488 3.09289,6.23487 -0.42622,3.00128 -0.42624,3.00127 z m 20.05557,-17.34628 -2.31802,0.44641 -0.16667,-0.76444 -0.16667,-0.76443 -0.16666,-1.463363 -0.16667,-1.463364 -5.18347,-5.091249 -5.18345,-5.091248 -6.47931,-3.526484 -6.47932,-3.526484 -1.1975,0.740106 -1.19752,0.740105 -0.72712,-1.894857 -0.72714,-1.894859 1.68622,-1.399428 1.6862,-1.399428 2.82161,0.543393 2.82163,0.543392 7.07958,4.541386 7.07959,4.541385 5.07997,5.642866 5.07999,5.642866 -0.42863,2.225654 -0.42862,2.225661 z m 9.69078,-21.144824 -4.67547,-0.06237 -6.21884,-2.431979 -6.21883,-2.431978 -4.3732,-3.113994 -4.3732,-3.113994 -3.40797,-0.05833 -3.40796,-0.05832 -2.33127,-4.666667 -2.33125,-4.666667 -0.002,-4.89095 -0.002,-4.890949 0.80932,-2.109051 0.80932,-2.109049 h 5.77055 5.77055 l 3.42013,1.300332 3.42013,1.300332 v 6.51785 6.517849 l 3.46807,3.468063 3.46805,3.468063 2.59723,0.824325 2.59723,0.824326 3.24948,-2.129139 3.24948,-2.129142 2.28168,-3.648096 2.28169,-3.648097 0.23723,-0.389235 0.23722,-0.389236 8.39587,1.352116 8.39587,1.352115 1.21725,1.217251 1.21725,1.21725 -1.99444,3.81987 -1.99442,3.819869 -3.88607,3.692928 -3.88607,3.692926 -4.55749,1.307074 -4.55751,1.307072 -4.67546,-0.06236 z"
         id="path3610"
         sodipodi:nodetypes="ccccccccccccccccccccccccccccccccccccccccccccccccccccccccccccccccccccccccccccccccccccccccccccccccccccccccccccccccccccccccccccccccccccccccccccccccccccccccccccccccccccccccccccccccccccccccccccccccccccccccccccccccccccccccccccccccccccccccccccccccccccccccccccccccccccccccccccccccccccccccccccccccccccccccccccccccccccccccccccccccccccccccccccccccccc" />
    </g>
    <path
       style="display:inline;fill:#69c0d5;fill-opacity:1;stroke:#69c0d5;stroke-width:0.164729;stroke-opacity:1"
       d="M 24.972144,20.23435 C 24.603181,19.967254 24.678559,19.177836 24.691977,18.794524 L 24.591145,13.420877 C 24.479859,7.4900968 24.479135,6.9796408 25.425015,6.4021761 25.84688,6.144626 27.1063,6.3086211 32.959711,6.1420889 c 6.441855,-0.1832726 7.088053,-0.3284752 7.640224,0.084391 0.387937,0.290065 0.661334,0.6509449 0.7536,0.9765689 0.259154,0.914573 0.207626,1.311218 0.207626,5.8455612 0,4.411124 0.249243,4.787948 -0.08244,5.652341 -0.281894,0.734623 -0.632952,1.148125 -1.153524,1.431387 -0.614651,0.334453 -1.110671,0.09111 -7.640198,0.228012 l -7.207106,0.151109 C 24.92223,20.276825 24.972141,20.23435 24.972141,20.23435 Z m 9.982263,-4.59568 c 0.768299,-0.487601 0.864603,-0.60977 0.82355,-1.044733 -0.08091,-0.857187 -0.476652,-0.92548 -1.255188,-0.216603 -0.825918,0.752019 -1.349788,0.795576 -2.217975,0.184412 -0.781787,-0.550338 -1.285004,-0.445143 -1.285004,0.268625 0,0.689474 1.037907,1.320116 2.21109,1.343476 0.695133,0.01384 1.014915,-0.08545 1.723527,-0.535177 z M 30.01126,12.76325 c 0.551246,-0.550879 0.565582,-1.534233 -0.06348,-2.135442 -0.326206,-0.31176 -0.590554,-0.324747 -1.011671,-0.247683 -0.503208,0.09209 -0.870313,0.34828 -1.063475,0.784796 -0.249512,0.563853 -0.137288,1.111364 0.178253,1.462679 0.464008,0.516612 0.863105,0.490047 1.004337,0.505063 0.380337,0.04044 0.71508,-0.128611 0.956041,-0.369413 z m 8.527907,-0.377155 c 0.310796,-0.300993 0.475029,-1.391685 -0.107583,-1.982493 -0.429713,-0.4357622 -0.700093,-0.4683702 -1.211276,-0.301483 -0.40942,0.133665 -0.645927,0.353498 -0.835673,0.776765 -0.257336,0.57404 -0.06093,1.050701 0.146767,1.337111 0.198159,0.273267 0.658213,0.626633 1.084427,0.626633 0.328918,0 0.623735,-0.166374 0.923338,-0.456533 z"
       id="path4439"
       sodipodi:nodetypes="ccsssssssssccsssssssssssssssssssss" />
    <ellipse
       style="display:inline;fill:#085c8b;fill-opacity:1;stroke:none;stroke-width:0.199153;stroke-opacity:1"
       id="path4469"
       cx="29.112022"
       cy="11.726384"
       rx="1.2987813"
       ry="1.4416387" />
    <ellipse
       ry="1.4416387"
       rx="1.2987813"
       cy="11.327145"
       cx="37.532715"
       id="path4469-8"
       style="display:inline;fill:#085c8b;fill-opacity:1;stroke:none;stroke-width:0.199153;stroke-opacity:1" />
    <path
       style="display:inline;fill:#085c8b;fill-opacity:1;stroke:none;stroke-width:0.0823651;stroke-opacity:1"
       d="m 27.062671,28.920825 -0.295715,-0.322144 v -1.964454 -1.964454 l 0.459189,-0.430581 0.45919,-0.430583 1.764704,-0.0012 1.764702,-0.0012 0.451381,0.503389 0.451381,0.50339 1.92e-4,1.556631 1.95e-4,1.556635 -0.419529,0.656721 -0.419523,0.656722 -1.960301,0.0016 -1.960302,0.0016 z"
       id="path4502" />
    <path
       style="display:inline;fill:#fbac06;fill-opacity:1;stroke:none;stroke-width:0.164729;stroke-opacity:1"
       d="m 25.989794,39.655308 c -0.04732,-0.131153 -0.04713,-0.396694 3.79e-4,-0.590092 0.07797,-0.317169 0.174742,-0.34302 0.987311,-0.263781 0.495479,0.04829 1.781314,0.02631 2.857412,-0.04883 l 1.956543,-0.136713 v 0.638957 0.638947 h -2.857833 c -2.305671,0 -2.874452,-0.04604 -2.943854,-0.238465 z"
       id="path4508" />
    <path
       style="display:inline;fill:#fbac06;fill-opacity:1;stroke:none;stroke-width:0.164729;stroke-opacity:1"
       d="m 25.77731,37.034585 c 0.166553,-0.195764 0.26433,-0.60427 0.26433,-1.104338 l -0.0012,-0.935042 2.522932,-0.0088 c 1.35587,-0.0047 2.274307,0.07798 2.507871,0.01452 l 0.715279,-0.137326 0.0051,1.105448 v 1.163844 l -0.49912,0.106194 c -0.274516,0.05838 -1.687176,0.106179 -3.139251,0.106179 -2.5476,0 -2.630868,-0.01088 -2.375801,-0.310702 z"
       id="path4510"
       sodipodi:nodetypes="sscsscccssss" />
    <path
       style="display:inline;fill:#085c8b;fill-opacity:1;stroke:none;stroke-width:0.0582408;stroke-opacity:1"
       d="m 34.619324,28.521885 -0.436309,-0.466858 v -1.654926 -1.654928 l 0.333746,-0.484661 0.333738,-0.48466 0.329769,-0.03647 c 0.181369,-0.02007 1.00904,-0.09293 1.839258,-0.16193 1.72798,-0.143614 1.472344,-0.198815 2.153366,0.464993 l 0.374656,0.365191 v 1.684672 1.68467 l -0.338575,0.485747 c -0.318152,0.456437 -0.35137,0.485821 -0.550572,0.486946 -0.116598,6.01e-4 -0.923496,0.05418 -1.793119,0.11894 -0.869616,0.06476 -1.632543,0.118281 -1.695385,0.118938 -0.06839,8.42e-4 -0.289402,-0.186203 -0.550573,-0.46566 z"
       id="path4514" />
    <path
       style="fill:#fbac06;fill-opacity:1;stroke:none;stroke-width:0.0582408;stroke-opacity:1"
       d="M 9.9024403,27.150615 C 8.8526323,26.967069 5.4727121,26.330681 4.5998852,26.152223 3.7107826,25.970439 3.6824021,25.960239 3.8917635,25.897755 l 0.2181013,-0.06509 0.6657705,-1.91586 c 0.5681843,-1.635034 0.6657728,-1.967233 0.6657728,-2.266331 v -0.350466 h 0.2797185 c 1.4709398,0.807644 4.4923064,2.143186 5.1971964,3.580028 0.02503,0.05104 -0.0014,0.04609 -0.01178,0.07709 -0.01894,0.05681 -0.07495,0.144427 -0.106252,0.222577 -0.0847,0.211518 -0.181244,0.509515 -0.273166,0.787307 -0.160425,0.484809 -0.314108,0.905058 -0.314108,0.929689 0,0.02463 0.08752,0.113474 0.194493,0.197425 0.227033,0.178176 0.204997,0.180641 -0.5050707,0.05649 z"
       id="path4534"
       sodipodi:nodetypes="ssscssccssscssss" />
    <path
       style="fill:#fbac06;fill-opacity:1;stroke:none;stroke-width:0.0582408;stroke-opacity:1"
       d="m 3.4622182,30.011734 c 0.040103,-0.02637 0.1365602,-0.59194 0.2368965,-1.388998 0.093087,-0.739488 0.1776992,-1.353512 0.1880237,-1.364494 0.010327,-0.01099 0.3081646,0.06273 0.6618634,0.163827 0.979127,0.279841 4.5697902,0.965992 5.0550905,0.965992 h 0.4103127 l -0.1517777,0.405462 c -0.09997,0.267073 -0.159135,0.553585 -0.17333,0.839449 L 9.6677373,30.066964 9.330008,29.885611 8.9922779,29.704258 7.626239,29.889968 C 6.4591155,30.037288 5.499297,30.27492 4.3967317,30.585703 4.0548039,30.520403 3.6138411,30.17946 3.4622142,30.011734 Z"
       id="path4536"
       sodipodi:nodetypes="csssscsscccccc" />
    <path
       style="fill:#fbac06;fill-opacity:1;stroke:none;stroke-width:0.0582408;stroke-opacity:1"
       d="M 50.616854,14.464953 50.082906,13.280886 49.065003,12.169229 C 48.505146,11.557817 47.964458,10.961803 47.86346,10.844753 l -0.183627,-0.212818 0.465768,-0.443017 c 0.261026,-0.2482772 0.460213,-0.4846132 0.453142,-0.5376412 -0.008,-0.06024 0.08838,-0.146739 0.265323,-0.238029 l 0.277949,-0.143404 1.231297,0.710226 1.231305,0.7102262 0.998031,1.055022 0.998024,1.055022 0.03657,0.345393 0.03656,0.345393 h -0.237785 c -0.232573,0 -0.260196,0.02362 -1.261528,1.078947 l -1.023747,1.078947 z"
       id="path4538" />
    <path
       style="fill:#fbac06;fill-opacity:1;stroke:none;stroke-width:0.0582408;stroke-opacity:1"
       d="M 53.729243,11.252248 52.861029,10.225117 51.470493,9.2813698 c -1.197248,-0.812566 -1.431729,-0.949564 -1.686989,-0.985603 -0.324677,-0.04584 -0.383441,-0.116556 -0.141172,-0.169882 0.105398,-0.0232 0.206876,-0.122163 0.315857,-0.308008 l 0.160564,-0.273827 -0.146451,-0.265829 c -0.08055,-0.146205 -0.146445,-0.281289 -0.146445,-0.300184 0,-0.05743 1.055752,-0.03832 1.204404,0.0218 0.07637,0.03089 0.490955,0.324936 0.9213,0.653445 0.7515,0.573675 0.82878,0.616528 1.95479,1.084021 0.699424,0.290387 1.307708,0.505359 1.507895,0.532904 l 0.335542,0.04617 -0.547569,1.0812292 c -0.500757,0.988807 -0.55001,1.115445 -0.576161,1.4815 l -0.02857,0.400269 z"
       id="path4540" />
    <path
       style="fill:#fbac06;fill-opacity:1;stroke:none;stroke-width:0.0102956;stroke-opacity:1"
       d="m 46.855649,18.831195 c 0,-0.0029 0.05421,-0.156706 0.12049,-0.34179 l 0.120486,-0.336514 -0.169383,-1.23488 -0.16938,-1.23488 -0.535286,-1.225355 c -0.294402,-0.673945 -0.557056,-1.266678 -0.583671,-1.317184 -0.06173,-0.117151 -0.109077,-0.244551 -0.129133,-0.347522 -0.01396,-0.07168 -0.01436,-0.113904 -0.0036,-0.366344 0.0066,-0.156932 0.01212,-0.317585 0.01201,-0.357007 l -1.92e-4,-0.07168 h 0.237683 0.237686 l 0.01436,-0.108418 0.01436,-0.108419 0.384321,-0.15688 c 0.211378,-0.08628 0.389139,-0.156956 0.395028,-0.157049 0.0059,-9.2e-5 0.447798,0.419892 0.98203,0.933299 l 0.971337,0.933466 0.72841,1.423488 0.728406,1.423489 -0.305957,0.52191 c -0.168281,0.287051 -0.303496,0.524531 -0.300492,0.527733 0.003,0.0032 0.173574,-0.01459 0.379022,-0.03955 0.205438,-0.02496 0.378564,-0.0436 0.384712,-0.04142 0.0059,0.0022 -0.297801,0.05119 -0.675455,0.108915 -0.377653,0.05772 -0.69897,0.110229 -0.714047,0.116682 -0.01512,0.0064 -0.458174,0.288878 -0.984666,0.627614 l -0.957255,0.615882 -0.05351,0.108676 c -0.05329,0.108274 -0.05364,0.108675 -0.09093,0.108841 -0.02057,9.6e-5 -0.03743,-0.0022 -0.03743,-0.0051 z"
       id="path4544" />
    <path
       sodipodi:nodetypes="csscccscccc"
       id="path4534-6"
       d="M 11.524271,23.903442 C 9.4026617,21.950365 7.8270994,21.158993 6.1629436,20.17914 c 0,0 1.1080611,-1.403276 1.3151629,-1.605577 l 1.4964221,-1.461732 0.7475257,-0.707504 c 0,0 0.5744007,-0.3543 0.4775717,-0.329143 0.400534,0.408846 1.284661,1.439486 1.846274,2.311729 0.430018,0.667863 0.609006,1.269221 0.609006,1.269221 0.774359,2.223642 0.964602,1.019169 0.435725,2.495549 l -1.308901,1.614825 z"
       style="fill:#fbac06;fill-opacity:1;stroke:none;stroke-width:0.0582408;stroke-opacity:1" />
    <path
       sodipodi:nodetypes="ccccc"
       id="path4536-5"
       d="m 10.83162,15.276516 0.72465,0.114244 0.475046,-0.798919 0.01693,2.063095 z"
       style="fill:#fbac06;fill-opacity:1;stroke:none;stroke-width:0.0498373;stroke-opacity:1" />
    <path
       style="fill:#fbac06;fill-opacity:1;stroke:none;stroke-width:0.0498373;stroke-opacity:1"
       d="m 45.452852,14.591841 0.610554,3.654569 -0.554512,1.102157 z"
       id="path4536-5-6"
       sodipodi:nodetypes="cccc" />
    <path
       sodipodi:nodetypes="cccccc"
       id="path4536-5-6-9"
       d="m 31.827887,33.024759 0.550676,0.738028 -6.967273,0.06243 0.301851,-0.337127 -0.02861,-0.40998 z"
       style="fill:#fbac06;fill-opacity:1;stroke:none;stroke-width:0.0498373;stroke-opacity:1" />
    <path
       style="display:inline;fill:#085c8b;fill-opacity:1;stroke:none;stroke-width:0.0823651;stroke-opacity:1"
       d="m 32.292855,15.933477 c -0.207924,-0.07331 -0.478999,-0.151003 -0.676678,-0.281422 -0.281758,-0.185894 -0.46589,-0.435078 -0.54587,-0.556546 -0.148307,-0.225227 -0.01457,-0.607352 0.120499,-0.751027 0.155287,-0.165187 0.404703,-0.101658 1.147587,0.30157 0.986289,0.535346 1.345048,0.50072 2.216433,-0.204473 0.660249,-0.534325 0.856122,-0.595123 1.026856,-0.370833 0.07981,0.10484 0.135127,0.504163 0.135127,0.653773 0,0.342772 -0.279987,0.560639 -1.02417,0.992728 -0.501874,0.291394 -0.67028,0.356447 -1.287726,0.378638 -0.415248,0.01492 -0.91779,-0.09392 -1.112058,-0.162408 z"
       id="path4606"
       sodipodi:nodetypes="sssssssssss" />
  </g>
</svg>
