<?xml version="1.0" encoding="UTF-8" standalone="no"?>
<svg
   xmlns:dc="http://purl.org/dc/elements/1.1/"
   xmlns:cc="http://creativecommons.org/ns#"
   xmlns:rdf="http://www.w3.org/1999/02/22-rdf-syntax-ns#"
   xmlns:svg="http://www.w3.org/2000/svg"
   xmlns="http://www.w3.org/2000/svg"
   xmlns:sodipodi="http://sodipodi.sourceforge.net/DTD/sodipodi-0.dtd"
   xmlns:inkscape="http://www.inkscape.org/namespaces/inkscape"
   sodipodi:docname="rocket1.svg"
   inkscape:version="1.0 (4035a4fb49, 2020-05-01)"
   id="svg8"
   version="1.1"
   viewBox="0 0 37.041666 15.874999"
   height="60"
   width="140">
  <defs
     id="defs2">
    <filter
       inkscape:collect="always"
       style="color-interpolation-filters:sRGB"
       id="filter886"
       x="-3.9344263e-06"
       width="1.0000079"
       y="-6.1538458e-06"
       height="1.0000123">
      <feGaussianBlur
         inkscape:collect="always"
         stdDeviation="5.3453905e-05"
         id="feGaussianBlur888" />
    </filter>
  </defs>
  <sodipodi:namedview
     showguides="false"
     units="px"
     inkscape:window-maximized="1"
     inkscape:window-y="58"
     inkscape:window-x="1281"
     inkscape:window-height="689"
     inkscape:window-width="1350"
     showgrid="false"
     inkscape:document-rotation="0"
     inkscape:current-layer="g241"
     inkscape:document-units="px"
     inkscape:cy="11.605852"
     inkscape:cx="39.401956"
     inkscape:zoom="2.8284271"
     inkscape:pageshadow="2"
     inkscape:pageopacity="0.0"
     borderopacity="1.0"
     bordercolor="#666666"
     pagecolor="#ffffff"
     id="base" />
  <metadata
     id="metadata5">
    <rdf:RDF>
      <cc:Work
         rdf:about="">
        <dc:format>image/svg+xml</dc:format>
        <dc:type
           rdf:resource="http://purl.org/dc/dcmitype/StillImage" />
        <dc:title></dc:title>
      </cc:Work>
    </rdf:RDF>
  </metadata>
  <g
     sodipodi:insensitive="true"
     inkscape:groupmode="layer"
     id="layer2"
     inkscape:label="Layer 2"
     style="display:none;filter:url(#filter886)">
    <rect
       ry="2.3845705e-06"
       y="-2.6458333"
       x="-3.0238097"
       height="92.226196"
       width="225.2738"
       id="rect208"
       style="fill:#000000;fill-rule:evenodd;stroke-width:0.264583" />
  </g>
  <g
     style="display:inline"
     id="layer1"
     inkscape:groupmode="layer"
     inkscape:label="Layer 1">
    <g
       style="stroke-width:5.50997"
       transform="matrix(0.18144017,6.4011799e-4,-6.3978051e-4,0.18153587,0.43870927,0.35067347)"
       id="g241">
      <g
         transform="translate(-1.7163997,-0.07129546)"
         id="g1151">
        <path
           style="fill:#e3da0a;stroke-width:5.50997"
           d="m 6.7394484,36.145023 c 0.078808,-0.07463 1.5974227,-0.01957 3.3747016,0.122358 5.832673,0.465791 18.743839,0.378953 24.919758,-0.1676 4.76631,-0.421802 8.398146,-0.809924 8.502351,-0.908609 0.256821,-0.243215 -0.340688,-0.476314 -3.128775,-1.220739 -7.98785,-2.132683 -13.234893,-4.236279 -18.904416,-7.578951 -2.365763,-1.394824 -4.41464,-2.898024 -4.211827,-3.090092 0.04698,-0.04449 1.619024,0.53215 3.493491,1.281368 11.849167,4.73609 24.708432,5.737103 40.873924,3.181765 7.168046,-1.133078 11.980735,-1.335915 17.595878,-0.741614 7.090152,0.75042 11.249881,1.794891 16.127421,4.04946 l 0.786701,0.363644 0.04036,-2.809885 c 0.02782,-1.937313 0.158549,-2.921816 0.420974,-3.170339 0.483943,-0.458303 5.46695,-2.588091 10.17584,-4.349247 4.05487,-1.51655 4.2708,-1.702357 3.94688,-3.396294 C 109.98493,13.695114 100.11182,10.805232 82.918581,9.5631236 76.786783,9.1201378 76.572843,8.8459695 81.563412,7.826452 92.30454,5.6321531 97.766657,5.0598805 104.72217,5.4000708 c 7.58164,0.3708151 12.67699,2.1793591 15.68999,5.5690112 1.06684,1.200197 2.00068,2.993497 2.25476,4.329968 0.21189,1.114421 0.36537,1.140714 3.20646,0.549256 5.51314,-1.147725 13.06581,-1.669105 19.56324,-1.350487 9.20231,0.451254 16.63347,2.013466 24.69648,5.19179 7.67449,3.025188 14.73904,7.348405 21.42621,13.111972 2.25069,1.939832 8.09297,8.222765 8.07629,8.685442 -0.0322,0.892496 -5.83467,6.865562 -9.64731,9.930919 -9.91547,7.972 -20.03654,12.728541 -32.31964,15.189064 -10.01664,2.006502 -21.36951,1.927911 -32.25883,-0.223337 -1.40797,-0.278152 -2.60119,-0.466672 -2.6516,-0.418931 -0.0504,0.04771 -0.27793,0.755129 -0.50561,1.571979 -0.55544,1.992697 -1.31336,3.105459 -3.24888,4.769951 -6.06854,5.218713 -18.60072,5.86879 -36.713604,1.904427 -2.217673,-0.485383 -4.188491,-0.962874 -4.37959,-1.061089 -0.714495,-0.367229 0.199697,-0.658112 2.341046,-0.744895 14.465718,-0.586278 25.786778,-2.960017 29.105178,-6.102613 1.21717,-1.152683 1.57943,-2.445833 1.00428,-3.584985 -0.1142,-0.226209 -2.08862,-1.140003 -4.71826,-2.183707 -5.51942,-2.190664 -8.906704,-3.698479 -9.29834,-4.139073 -0.161702,-0.181916 -0.27792,-1.400196 -0.258254,-2.707282 0.01966,-1.30708 -0.02407,-2.443814 -0.09719,-2.526066 -0.07312,-0.08226 -0.686831,0.120639 -1.363816,0.450877 -1.572459,0.767045 -4.702777,1.514838 -9.935496,2.37345 -9.423585,1.546274 -15.320778,1.41096 -28.04103,-0.643423 -12.316298,-1.989137 -15.480088,-2.3179 -25.847085,-2.685904 -5.097913,-0.180964 -9.211779,-0.38315 -9.14192,-0.449308 0.529826,-0.501757 13.549523,-3.189091 18.784896,-3.877301 9.469936,-1.24486 12.253297,-1.687003 12.405826,-1.97069 C 52.965682,44.144625 51.011641,43.849863 42.34825,42.774865 40.071721,42.49238 36.854619,42.058022 35.199133,41.809623 33.543649,41.561226 31.399528,41.247399 30.434422,41.112234 19.652082,39.602177 6.0908059,36.759301 6.7394484,36.145023 Z m 91.5234286,20.4796 c 3.173543,1.519982 6.384583,2.755015 6.543763,2.51686 0.28796,-0.430833 0.31001,-16.354796 0.0231,-16.677581 -0.29163,-0.328088 -7.297369,-0.282394 -7.648237,0.04989 -0.22146,0.209727 -0.341499,2.517942 -0.355199,6.83 -0.01138,3.58227 -0.0037,6.537035 0.01711,6.566142 0.02106,0.02891 0.659557,0.350729 1.419471,0.714693 z m 10.743173,4.559206 c 7.22178,2.54487 12.37022,3.935649 18.45197,4.984509 11.77091,2.03003 23.34181,1.714798 33.97992,-0.925727 3.2119,-0.797236 9.33568,-2.936916 9.87953,-3.451955 0.30786,-0.291552 0.37993,-3.261099 0.58988,-24.30659 0.13538,-13.571158 0.1255,-16.085451 -0.064,-16.298672 -0.27731,-0.31198 -1.44625,-0.802587 -4.84012,-2.031412 -15.63577,-5.661261 -34.83363,-5.541856 -53.51539,0.332857 -4.51922,1.421123 -6.97767,2.313943 -7.35464,2.670944 -0.15828,0.149897 -0.29385,2.02443 -0.30126,4.165634 -0.007,2.141199 -0.041,6.025191 -0.0747,8.63109 -0.0337,2.605905 0.0204,4.779343 0.12016,4.829859 0.0998,0.05053 4.03373,0.11443 8.74207,0.142009 4.70835,0.02759 8.60543,0.100568 8.6602,0.162184 0.21641,0.243461 0.0745,1.90091 -0.17524,2.046427 -0.14616,0.08515 -3.785,0.137917 -8.08633,0.117233 -10.04871,-0.04833 -9.11654,-0.100121 -9.19876,0.511084 -0.19539,1.452363 -0.11181,16.914695 0.0927,17.144732 0.13202,0.148531 1.52437,0.722637 3.09412,1.275794 z m 28.71283,-14.550861 c -0.80023,-1.472288 -1.25142,-3.510893 -1.23216,-5.567251 0.0541,-5.781918 4.28997,-10.434733 9.82186,-10.788713 6.33206,-0.405189 11.53517,4.660402 11.414,11.112344 -0.16199,8.626258 -9.42471,13.756018 -16.47362,9.123214 -1.1035,-0.725265 -2.87202,-2.668891 -3.53006,-3.879612 z m 3.1233,2.833245 c 3.2223,2.621882 7.49876,2.995006 11.18717,0.976102 3.04514,-1.666794 5.01629,-5.033803 5.15008,-8.797058 0.16143,-4.540646 -2.52056,-8.655394 -6.68566,-10.257214 -1.37092,-0.527238 -4.26489,-0.686497 -5.7131,-0.314401 -4.62082,1.187247 -7.79066,5.368881 -7.83702,10.338555 -0.0171,1.837045 0.32196,3.211325 1.19493,4.842823 0.80545,1.505293 1.23702,2.017895 2.7036,3.211193 z m -0.40114,-5.210368 c -2.14162,-5.090665 1.60981,-10.745763 6.97051,-10.50767 4.29234,0.190642 7.41106,4.026011 6.8896,8.472758 -0.35478,3.025421 -2.3208,5.318953 -5.34249,6.232483 -3.46759,1.048343 -7.05429,-0.719223 -8.51762,-4.197571 z m 4.22218,3.116001 c 5.12125,2.026571 10.14428,-2.879874 8.43342,-8.237678 -0.52559,-1.645944 -2.13608,-3.384104 -3.71416,-4.008578 -3.28414,-1.299598 -6.9851,0.368212 -8.25119,3.718335 -0.9503,2.514521 -0.51551,4.788744 1.31997,6.904265 0.77697,0.895499 1.25074,1.243277 2.21196,1.623656 z m -43.60425,-7.59089 c 2.12884,0.02445 3.91577,-0.04657 3.97094,-0.157834 0.0552,-0.111264 0.1,-1.422794 0.0995,-2.914511 -4.2e-4,-1.491719 0.007,-5.228599 0.0155,-8.304177 0.009,-3.075582 -0.0261,-5.639642 -0.0779,-5.697915 -0.13273,-0.149326 -1.59621,0.407742 -5.04027,1.91855 l -2.976498,1.305709 -0.115419,4.1923 c -0.131815,4.787915 -0.07509,9.243765 0.12048,9.463785 0.07315,0.0823 1.874786,0.169639 4.003627,0.194093 z m 82.65993,-8.687761 c 7.55171,6.787272 12.72573,10.725495 13.46912,10.252081 0.91548,-0.583015 -2.84545,-5.195176 -6.74814,-8.275478 -4.13963,-3.267312 -13.1568,-9.125175 -14.08575,-9.150588 -0.4469,-0.01222 1.74758,2.125416 7.36477,7.173985 z"
           id="path256" />
        <path
           style="fill:#e4910f;stroke-width:5.50997"
           d="m 6.7394484,36.145023 c 0.078808,-0.07463 1.5974227,-0.01957 3.3747016,0.122358 5.832673,0.465791 18.743839,0.378953 24.919758,-0.1676 4.76631,-0.421802 8.398146,-0.809924 8.502351,-0.908609 0.256821,-0.243215 -0.340688,-0.476314 -3.128775,-1.220739 -7.98785,-2.132683 -13.234893,-4.236279 -18.904416,-7.578951 -2.365763,-1.394824 -4.41464,-2.898024 -4.211827,-3.090092 0.04698,-0.04449 1.619024,0.53215 3.493491,1.281368 11.849167,4.73609 24.708432,5.737103 40.873924,3.181765 7.168046,-1.133078 11.980735,-1.335915 17.595878,-0.741614 7.090152,0.75042 11.249881,1.794891 16.127421,4.04946 l 0.786701,0.363644 0.04036,-2.809885 c 0.02782,-1.937313 0.158549,-2.921816 0.420974,-3.170339 0.483943,-0.458303 5.46695,-2.588091 10.17584,-4.349247 4.05487,-1.51655 4.2708,-1.702357 3.94688,-3.396294 C 109.98493,13.695114 100.11182,10.805232 82.918581,9.5631236 76.786783,9.1201378 76.572843,8.8459695 81.563412,7.826452 92.30454,5.6321531 97.766657,5.0598805 104.72217,5.4000708 c 7.58164,0.3708151 12.67699,2.1793591 15.68999,5.5690112 1.06684,1.200197 2.00068,2.993497 2.25476,4.329968 0.21189,1.114421 0.36537,1.140714 3.20646,0.549256 5.51314,-1.147725 13.06581,-1.669105 19.56324,-1.350487 9.20231,0.451254 16.63347,2.013466 24.69648,5.19179 7.67449,3.025188 14.73904,7.348405 21.42621,13.111972 2.25069,1.939832 8.09297,8.222765 8.07629,8.685442 -0.0322,0.892496 -5.83467,6.865562 -9.64731,9.930919 -9.91547,7.972 -20.03654,12.728541 -32.31964,15.189064 -10.01664,2.006502 -21.36951,1.927911 -32.25883,-0.223337 -1.40797,-0.278152 -2.60119,-0.466672 -2.6516,-0.418931 -0.0504,0.04771 -0.27793,0.755129 -0.50561,1.571979 -0.55544,1.992697 -1.31336,3.105459 -3.24888,4.769951 -6.06854,5.218713 -18.60072,5.86879 -36.713604,1.904427 -2.217673,-0.485383 -4.188491,-0.962874 -4.37959,-1.061089 -0.714495,-0.367229 0.199697,-0.658112 2.341046,-0.744895 14.465718,-0.586278 25.786778,-2.960017 29.105178,-6.102613 1.21717,-1.152683 1.57943,-2.445833 1.00428,-3.584985 -0.1142,-0.226209 -2.08862,-1.140003 -4.71826,-2.183707 -5.51942,-2.190664 -8.906704,-3.698479 -9.29834,-4.139073 -0.161702,-0.181916 -0.27792,-1.400196 -0.258254,-2.707282 0.01966,-1.30708 -0.02407,-2.443814 -0.09719,-2.526066 -0.07312,-0.08226 -0.686831,0.120639 -1.363816,0.450877 -1.572459,0.767045 -4.702777,1.514838 -9.935496,2.37345 -9.423585,1.546274 -15.320778,1.41096 -28.04103,-0.643423 -12.316298,-1.989137 -15.480088,-2.3179 -25.847085,-2.685904 -5.097913,-0.180964 -9.211779,-0.38315 -9.14192,-0.449308 0.529826,-0.501757 13.549523,-3.189091 18.784896,-3.877301 9.469936,-1.24486 12.253297,-1.687003 12.405826,-1.97069 C 52.965682,44.144625 51.011641,43.849863 42.34825,42.774865 40.071721,42.49238 36.854619,42.058022 35.199133,41.809623 33.543649,41.561226 31.399528,41.247399 30.434422,41.112234 19.652082,39.602177 6.0908059,36.759301 6.7394484,36.145023 Z M 55.006372,40.67363 c 3.310509,0.693092 9.139457,1.328254 18.375747,2.002329 4.24264,0.309635 4.971189,0.405002 4.743217,0.620896 -0.05473,0.05183 -1.656744,0.631732 -3.560066,1.288702 -3.788546,1.307692 -6.217889,1.975539 -9.014277,2.478096 -1.003652,0.180375 -1.827702,0.397021 -1.831222,0.48144 -0.0035,0.0844 1.193006,0.278514 2.658949,0.431322 1.465936,0.152814 5.064126,0.60476 7.995973,1.004325 5.511661,0.751163 8.239268,0.87946 11.086397,0.521466 3.185403,-0.400525 7.094444,-1.652936 9.363518,-2.999953 l 0.932813,-0.553759 0.07747,-1.57964 c 0.04261,-0.868803 -0.0031,-1.670286 -0.101583,-1.781076 -0.09848,-0.110788 -0.758982,-0.193568 -1.467782,-0.183963 -5.966866,0.08089 -16.617847,-0.138159 -16.8022,-0.345559 -0.329792,-0.371018 -0.247412,-2.018063 0.118263,-2.364364 0.174776,-0.165517 4.237834,-0.269328 9.321045,-0.238146 l 9.011205,0.05528 0.01128,-2.660485 c 0.0062,-1.463263 -0.109306,-2.797257 -0.25668,-2.964437 -0.420609,-0.477103 -4.68916,-1.627076 -6.306083,-1.69889 -0.803699,-0.0357 -4.273703,0.28934 -7.71112,0.722309 -8.931212,1.124949 -13.888113,1.384648 -16.901645,0.885502 -0.790551,-0.130945 -1.396069,-0.142797 -1.3456,-0.02633 0.262502,0.605682 4.858813,1.819804 10.485454,2.76974 2.107769,0.355855 3.885546,0.703496 3.950623,0.772532 0.300477,0.318858 -0.592283,0.545891 -4.979012,1.266287 -5.82306,0.956271 -10.071579,1.411986 -13.563157,1.454842 -5.249137,0.06442 -5.657593,0.08291 -5.509603,0.249394 0.08237,0.09267 0.630499,0.269131 1.218074,0.392146 z m 43.256505,15.950993 c 3.173543,1.519982 6.384583,2.755015 6.543763,2.51686 0.28796,-0.430833 0.31001,-16.354796 0.0231,-16.677581 -0.29163,-0.328088 -7.297369,-0.282394 -7.648237,0.04989 -0.22146,0.209727 -0.341499,2.517942 -0.355199,6.83 -0.01138,3.58227 -0.0037,6.537035 0.01711,6.566142 0.02106,0.02891 0.659557,0.350729 1.419471,0.714693 z m 10.743173,4.559206 c 7.22178,2.54487 12.37022,3.935649 18.45197,4.984509 11.77091,2.03003 23.34181,1.714798 33.97992,-0.925727 3.2119,-0.797236 9.33568,-2.936916 9.87953,-3.451955 0.30786,-0.291552 0.37993,-3.261099 0.58988,-24.30659 0.13538,-13.571158 0.1255,-16.085451 -0.064,-16.298672 -0.27731,-0.31198 -1.44625,-0.802587 -4.84012,-2.031412 -15.63577,-5.661261 -34.83363,-5.541856 -53.51539,0.332857 -4.51922,1.421123 -6.97767,2.313943 -7.35464,2.670944 -0.15828,0.149897 -0.29385,2.02443 -0.30126,4.165634 -0.007,2.141199 -0.041,6.025191 -0.0747,8.63109 -0.0337,2.605905 0.0204,4.779343 0.12016,4.829859 0.0998,0.05053 4.03373,0.11443 8.74207,0.142009 4.70835,0.02759 8.60543,0.100568 8.6602,0.162184 0.21641,0.243461 0.0745,1.90091 -0.17524,2.046427 -0.14616,0.08515 -3.785,0.137917 -8.08633,0.117233 -10.04871,-0.04833 -9.11654,-0.100121 -9.19876,0.511084 -0.19539,1.452363 -0.11181,16.914695 0.0927,17.144732 0.13202,0.148531 1.52437,0.722637 3.09412,1.275794 z m 28.71283,-14.550861 c -0.80023,-1.472288 -1.25142,-3.510893 -1.23216,-5.567251 0.0541,-5.781918 4.28997,-10.434733 9.82186,-10.788713 6.33206,-0.405189 11.53517,4.660402 11.414,11.112344 -0.16199,8.626258 -9.42471,13.756018 -16.47362,9.123214 -1.1035,-0.725265 -2.87202,-2.668891 -3.53006,-3.879612 z m 3.1233,2.833245 c 3.2223,2.621882 7.49876,2.995006 11.18717,0.976102 3.04514,-1.666794 5.01629,-5.033803 5.15008,-8.797058 0.16143,-4.540646 -2.52056,-8.655394 -6.68566,-10.257214 -1.37092,-0.527238 -4.26489,-0.686497 -5.7131,-0.314401 -4.62082,1.187247 -7.79066,5.368881 -7.83702,10.338555 -0.0171,1.837045 0.32196,3.211325 1.19493,4.842823 0.80545,1.505293 1.23702,2.017895 2.7036,3.211193 z m -0.40114,-5.210368 c -2.14162,-5.090665 1.60981,-10.745763 6.97051,-10.50767 4.29234,0.190642 7.41106,4.026011 6.8896,8.472758 -0.35478,3.025421 -2.3208,5.318953 -5.34249,6.232483 -3.46759,1.048343 -7.05429,-0.719223 -8.51762,-4.197571 z m 4.22218,3.116001 c 5.12125,2.026571 10.14428,-2.879874 8.43342,-8.237678 -0.52559,-1.645944 -2.13608,-3.384104 -3.71416,-4.008578 -3.28414,-1.299598 -6.9851,0.368212 -8.25119,3.718335 -0.9503,2.514521 -0.51551,4.788744 1.31997,6.904265 0.77697,0.895499 1.25074,1.243277 2.21196,1.623656 z m -43.60425,-7.59089 c 2.12884,0.02445 3.91577,-0.04657 3.97094,-0.157834 0.0552,-0.111264 0.1,-1.422794 0.0995,-2.914511 -4.2e-4,-1.491719 0.007,-5.228599 0.0155,-8.304177 0.009,-3.075582 -0.0261,-5.639642 -0.0779,-5.697915 -0.13273,-0.149326 -1.59621,0.407742 -5.04027,1.91855 l -2.976498,1.305709 -0.115419,4.1923 c -0.131815,4.787915 -0.07509,9.243765 0.12048,9.463785 0.07315,0.0823 1.874786,0.169639 4.003627,0.194093 z m 82.65993,-8.687761 c 7.55171,6.787272 12.72573,10.725495 13.46912,10.252081 0.91548,-0.583015 -2.84545,-5.195176 -6.74814,-8.275478 -4.13963,-3.267312 -13.1568,-9.125175 -14.08575,-9.150588 -0.4469,-0.01222 1.74758,2.125416 7.36477,7.173985 z"
           id="path254" />
        <path
           style="fill:#e25318;stroke-width:5.50997"
           d="m 6.8113556,36.190674 c 0.1657215,-0.03269 2.6641466,0.0684 5.5520544,0.224641 7.933123,0.429206 16.766412,0.250858 25.259601,-0.51 5.456694,-0.488834 5.834086,-0.542135 5.998068,-0.847125 0.06761,-0.125747 -1.627756,-0.707378 -3.767481,-1.292515 -6.85649,-1.874994 -11.354351,-3.591532 -16.27111,-6.209604 -2.310195,-1.230125 -5.856711,-3.562315 -6.025041,-3.96206 -0.06395,-0.15193 1.201274,0.243319 2.811651,0.878285 3.695937,1.457292 4.515812,1.722211 8.30428,2.683306 10.037838,2.546481 20.068149,2.717712 33.519042,0.572227 5.55205,-0.885577 8.516351,-1.055459 13.949045,-0.799408 5.263117,0.248064 9.714772,0.900703 13.527312,1.983195 1.739901,0.494015 5.520563,2.016258 5.806495,2.337934 0.488895,0.550011 0.700139,-0.220156 0.735034,-2.679811 0.02687,-1.894449 0.157803,-2.865946 0.41968,-3.11395 0.483943,-0.458303 5.466954,-2.588091 10.175844,-4.349247 4.05487,-1.51655 4.2708,-1.702357 3.94688,-3.396294 C 109.98493,13.695114 100.11182,10.805232 82.918581,9.5631236 76.786783,9.1201378 76.572843,8.8459695 81.563412,7.826452 92.30454,5.6321531 97.766657,5.0598805 104.72217,5.4000708 c 7.58164,0.3708151 12.67699,2.1793591 15.68999,5.5690112 1.06684,1.200197 2.00068,2.993497 2.25476,4.329968 0.21189,1.114421 0.36537,1.140714 3.20646,0.549256 5.51314,-1.147725 13.06581,-1.669105 19.56324,-1.350487 9.20231,0.451254 16.63347,2.013466 24.69648,5.19179 7.67449,3.025188 14.73904,7.348405 21.42621,13.111972 2.25069,1.939832 8.09297,8.222765 8.07629,8.685442 -0.0322,0.892496 -5.83467,6.865562 -9.64731,9.930919 -9.91547,7.972 -20.03654,12.728541 -32.31964,15.189064 -10.01664,2.006502 -21.36951,1.927911 -32.25883,-0.223337 -1.40797,-0.278152 -2.60119,-0.466672 -2.6516,-0.418931 -0.0504,0.04771 -0.27793,0.755129 -0.50561,1.571979 -0.55544,1.992697 -1.31336,3.105459 -3.24888,4.769951 -6.06854,5.218713 -18.60072,5.86879 -36.713604,1.904427 -2.217673,-0.485383 -4.188491,-0.962874 -4.37959,-1.061089 -0.714495,-0.367229 0.199697,-0.658112 2.341046,-0.744895 14.465718,-0.586278 25.786778,-2.960017 29.105178,-6.102613 1.21717,-1.152683 1.57943,-2.445833 1.00428,-3.584985 -0.1142,-0.226209 -2.08862,-1.140003 -4.71826,-2.183707 -5.51942,-2.190664 -8.906704,-3.698479 -9.29834,-4.139073 -0.161702,-0.181916 -0.277748,-1.411577 -0.257883,-2.732571 0.01988,-1.320993 -0.06093,-2.457405 -0.179561,-2.525362 -0.118631,-0.06795 -0.860464,0.171869 -1.64851,0.53294 -1.705883,0.781616 -4.383646,1.423499 -9.458609,2.267314 -9.283528,1.543575 -15.154469,1.445285 -26.801659,-0.448717 -14.068735,-2.28777 -21.233929,-2.968911 -32.671211,-3.105816 -2.132522,-0.02553 -3.681315,-0.136632 -3.441762,-0.246903 0.694032,-0.319478 6.432873,-1.625012 10.721196,-2.438969 4.175451,-0.792537 5.707642,-1.026184 16.350283,-2.493279 2.180256,-0.300554 4.027901,-0.602588 4.105882,-0.671195 0.443811,-0.390464 -1.016902,-0.656316 -7.965615,-1.449739 C 37.882826,42.258696 23.116216,40.023853 17.244382,38.867101 12.27369,37.887874 6.1592295,36.3193 6.8113556,36.190674 Z M 29.047288,38.87778 c 0.926987,0.198655 3.27455,0.566777 5.216812,0.818042 3.346427,0.432922 6.390047,0.842281 16.856845,2.267185 2.484358,0.338212 5.847806,0.780067 7.474329,0.981906 1.626528,0.201833 3.537908,0.458586 4.247514,0.57056 0.709611,0.111969 2.516931,0.324726 4.016271,0.47279 4.422436,0.436733 4.115623,0.625494 -2.71136,1.668132 -5.757461,0.879291 -15.344944,2.602721 -15.54782,2.794849 -0.0689,0.06525 1.994047,0.212768 4.58433,0.327814 5.013331,0.222663 9.380113,0.781829 16.134434,2.066021 8.176257,1.554542 10.736658,1.724767 15.064699,1.001567 2.871409,-0.4798 8.919912,-2.276778 10.455913,-3.106394 l 0.988243,-0.533768 0.123367,-2.790196 c 0.06786,-1.534617 0.04077,-2.883134 -0.06019,-2.996716 -0.10096,-0.11358 -3.068007,-0.227793 -6.593447,-0.253799 -8.198074,-0.06048 -11.559259,-0.143787 -11.688981,-0.289725 -0.195365,-0.219787 -0.09518,-1.800502 0.127491,-2.011375 0.199331,-0.18877 3.272944,-0.214966 14.815457,-0.126269 l 3.517608,0.02703 0.0331,-2.72335 c 0.01821,-1.497848 -0.03615,-3.184433 -0.120782,-3.74798 L 95.827228,32.269482 94.074247,31.546609 C 89.920431,29.833701 83.19294,29.428448 74.255449,30.352755 c -6.879611,0.711483 -14.402172,1.277686 -18.395054,1.384556 -3.551962,0.09506 -10.502492,-0.279361 -12.561637,-0.676696 -1.304066,-0.251636 -1.896574,-0.22539 -1.631972,0.07229 0.536844,0.603954 13.030708,3.699402 18.260106,4.524074 3.857916,0.608394 3.042257,1.153469 -3.349474,2.238328 -5.254698,0.891873 -10.787719,1.084414 -20.465278,0.712177 -4.937013,-0.1899 -8.92552,-0.288036 -8.863339,-0.218083 0.06218,0.06995 0.871499,0.289722 1.798487,0.488378 z m 69.215589,17.746843 c 3.173543,1.519982 6.384583,2.755015 6.543763,2.51686 0.28796,-0.430833 0.31001,-16.354796 0.0231,-16.677581 -0.29163,-0.328088 -7.297369,-0.282394 -7.648237,0.04989 -0.22146,0.209727 -0.341499,2.517942 -0.355199,6.83 -0.01138,3.58227 -0.0037,6.537035 0.01711,6.566142 0.02106,0.02891 0.659557,0.350729 1.419471,0.714693 z m 10.743173,4.559206 c 7.22178,2.54487 12.37022,3.935649 18.45197,4.984509 11.77091,2.03003 23.34181,1.714798 33.97992,-0.925727 3.2119,-0.797236 9.33568,-2.936916 9.87953,-3.451955 0.30786,-0.291552 0.37993,-3.261099 0.58988,-24.30659 0.13538,-13.571158 0.1255,-16.085451 -0.064,-16.298672 -0.27731,-0.31198 -1.44625,-0.802587 -4.84012,-2.031412 -15.63577,-5.661261 -34.83363,-5.541856 -53.51539,0.332857 -4.51922,1.421123 -6.97767,2.313943 -7.35464,2.670944 -0.15828,0.149897 -0.29385,2.02443 -0.30126,4.165634 -0.007,2.141199 -0.041,6.025191 -0.0747,8.63109 -0.0337,2.605905 0.0204,4.779343 0.12016,4.829859 0.0998,0.05053 4.03373,0.11443 8.74207,0.142009 4.70835,0.02759 8.60543,0.100568 8.6602,0.162184 0.21641,0.243461 0.0745,1.90091 -0.17524,2.046427 -0.14616,0.08515 -3.785,0.137917 -8.08633,0.117233 -10.04871,-0.04833 -9.11654,-0.100121 -9.19876,0.511084 -0.19539,1.452363 -0.11181,16.914695 0.0927,17.144732 0.13202,0.148531 1.52437,0.722637 3.09412,1.275794 z m 28.71283,-14.550861 c -0.80023,-1.472288 -1.25142,-3.510893 -1.23216,-5.567251 0.0541,-5.781918 4.28997,-10.434733 9.82186,-10.788713 6.33206,-0.405189 11.53517,4.660402 11.414,11.112344 -0.16199,8.626258 -9.42471,13.756018 -16.47362,9.123214 -1.1035,-0.725265 -2.87202,-2.668891 -3.53006,-3.879612 z m 3.1233,2.833245 c 3.2223,2.621882 7.49876,2.995006 11.18717,0.976102 3.04514,-1.666794 5.01629,-5.033803 5.15008,-8.797058 0.16143,-4.540646 -2.52056,-8.655394 -6.68566,-10.257214 -1.37092,-0.527238 -4.26489,-0.686497 -5.7131,-0.314401 -4.62082,1.187247 -7.79066,5.368881 -7.83702,10.338555 -0.0171,1.837045 0.32196,3.211325 1.19493,4.842823 0.80545,1.505293 1.23702,2.017895 2.7036,3.211193 z m -0.40114,-5.210368 c -2.14162,-5.090665 1.60981,-10.745763 6.97051,-10.50767 4.29234,0.190642 7.41106,4.026011 6.8896,8.472758 -0.35478,3.025421 -2.3208,5.318953 -5.34249,6.232483 -3.46759,1.048343 -7.05429,-0.719223 -8.51762,-4.197571 z m 4.22218,3.116001 c 5.12125,2.026571 10.14428,-2.879874 8.43342,-8.237678 -0.52559,-1.645944 -2.13608,-3.384104 -3.71416,-4.008578 -3.28414,-1.299598 -6.9851,0.368212 -8.25119,3.718335 -0.9503,2.514521 -0.51551,4.788744 1.31997,6.904265 0.77697,0.895499 1.25074,1.243277 2.21196,1.623656 z m -43.60425,-7.59089 c 2.12884,0.02445 3.91577,-0.04657 3.97094,-0.157834 0.0552,-0.111264 0.1,-1.422794 0.0995,-2.914511 -4.2e-4,-1.491719 0.007,-5.228599 0.0155,-8.304177 0.009,-3.075582 -0.0261,-5.639642 -0.0779,-5.697915 -0.13273,-0.149326 -1.59621,0.407742 -5.04027,1.91855 l -2.976498,1.305709 -0.115419,4.1923 c -0.131815,4.787915 -0.07509,9.243765 0.12048,9.463785 0.07315,0.0823 1.874786,0.169639 4.003627,0.194093 z m 82.65993,-8.687761 c 7.55171,6.787272 12.72573,10.725495 13.46912,10.252081 0.91548,-0.583015 -2.84545,-5.195176 -6.74814,-8.275478 -4.13963,-3.267312 -13.1568,-9.125175 -14.08575,-9.150588 -0.4469,-0.01222 1.74758,2.125416 7.36477,7.173985 z"
           id="path252" />
        <path
           style="fill:#020606;fill-opacity:1;stroke-width:5.50997"
           d="m 77.815345,72.732525 c 0.138742,-0.131391 1.235054,-0.27873 2.436237,-0.327414 14.465718,-0.586278 25.786778,-2.960017 29.105178,-6.102613 1.21717,-1.152683 1.57943,-2.445833 1.00428,-3.584985 -0.1142,-0.226209 -2.08862,-1.140003 -4.71826,-2.183707 -5.51942,-2.190664 -8.906704,-3.698479 -9.29834,-4.139073 -0.161702,-0.181916 -0.298239,-1.38421 -0.303396,-2.67175 -0.0052,-1.287547 -0.01946,-4.449698 -0.03178,-7.027015 l -0.02238,-4.686032 2.703804,-7.85e-4 c 1.487092,-4.31e-4 3.639692,-0.02094 4.783562,-0.04559 1.14387,-0.02464 2.44813,0.02309 2.89835,0.106064 0.81812,0.150773 0.81822,0.150865 0.1665,0.170351 -0.56362,0.01683 -0.66127,0.08782 -0.71986,0.523336 -0.19538,1.452363 -0.1118,16.914695 0.0927,17.144732 0.52364,0.589099 10.12379,3.734641 14.95488,4.900041 14.17226,3.41877 27.95362,3.566379 40.57113,0.434541 3.21191,-0.797242 9.33568,-2.936922 9.87954,-3.451961 0.30786,-0.291552 0.37993,-3.261099 0.58988,-24.30659 0.13538,-13.571158 0.1255,-16.085451 -0.064,-16.298672 -0.27731,-0.31198 -1.44625,-0.802587 -4.84012,-2.031412 -15.63577,-5.661261 -34.83363,-5.541856 -53.51539,0.332857 -4.51923,1.421123 -6.97767,2.313943 -7.35464,2.670944 -0.15828,0.149897 -0.29385,2.02443 -0.30126,4.165634 -0.007,2.141198 -0.0409,6.013671 -0.0744,8.605505 -0.0335,2.591828 0.0175,4.800626 0.1133,4.908443 0.0958,0.107818 -1.6032,0.177252 -3.77563,0.154295 -2.172435,-0.02296 -4.415444,-0.03027 -4.984466,-0.01625 l -1.03459,0.02549 0.0058,-3.426958 c 0.01227,-7.207533 0.193615,-10.782503 0.564768,-11.133993 0.469156,-0.4443 5.512228,-2.595442 10.159128,-4.333413 4.05487,-1.51655 4.2708,-1.702357 3.94688,-3.396294 C 109.98492,13.695125 100.11181,10.805243 82.918568,9.5631355 76.786771,9.1201497 76.57283,8.8459814 81.563399,7.8264639 92.304527,5.6321651 97.766644,5.0598924 104.72215,5.4000827 c 7.58165,0.3708151 12.677,2.1793591 15.69,5.5690113 1.06683,1.200197 2.00067,2.993497 2.25476,4.329968 0.21188,1.114421 0.36537,1.140714 3.20646,0.549256 5.51314,-1.147725 13.06581,-1.669105 19.56323,-1.350487 9.20232,0.451254 16.63348,2.013466 24.69648,5.19179 7.6745,3.025188 14.73905,7.348405 21.42622,13.111972 2.25068,1.939832 8.09297,8.222765 8.07629,8.685442 -0.0322,0.892496 -5.83467,6.865562 -9.64731,9.930919 -9.91548,7.972 -20.03654,12.728541 -32.31964,15.189064 -10.01665,2.006502 -21.36951,1.927911 -32.25883,-0.223337 -1.40797,-0.278152 -2.60119,-0.466672 -2.6516,-0.418931 -0.0504,0.04771 -0.27793,0.755129 -0.50562,1.571979 -0.55543,1.992697 -1.31335,3.105458 -3.24888,4.769951 -6.06853,5.218713 -18.60071,5.86879 -36.713596,1.904427 -4.404926,-0.964102 -4.859443,-1.114288 -4.474781,-1.47857 z m 6.823181,1.254777 c 8.530357,1.81347 17.661224,2.448959 23.923084,1.664985 6.38993,-0.800001 11.44902,-3.807325 12.77041,-7.591253 0.70865,-2.029285 0.64069,-2.176163 -1.21733,-2.631031 -0.86369,-0.211446 -3.12947,-0.867875 -5.03508,-1.458739 -1.9056,-0.590864 -3.52532,-1.016922 -3.59936,-0.946798 -0.0741,0.07013 -0.13268,0.425317 -0.13026,0.789309 0.008,1.271333 -0.4209,2.036827 -1.76175,3.141299 -3.39671,2.797934 -11.235454,4.746475 -22.998278,5.716874 -2.426748,0.200203 -4.436117,0.386583 -4.465269,0.41419 -0.214192,0.202845 0.597131,0.493688 2.513833,0.901164 z M 98.262877,56.624623 c 3.173543,1.519982 6.384583,2.755015 6.543763,2.51686 0.28796,-0.430833 0.31001,-16.354796 0.0231,-16.677581 -0.29163,-0.328088 -7.297369,-0.282394 -7.648237,0.04989 -0.22146,0.209727 -0.341499,2.517942 -0.355199,6.83 -0.01138,3.58227 -0.0037,6.537035 0.01711,6.566142 0.02106,0.02891 0.659557,0.350729 1.419471,0.714693 z m 2.796093,-16.843667 c 2.12884,0.02445 3.91577,-0.04657 3.97094,-0.157834 0.0552,-0.111264 0.1,-1.422794 0.0995,-2.914511 -4.2e-4,-1.491719 0.007,-5.228599 0.0155,-8.304177 0.009,-3.075582 -0.0261,-5.639642 -0.0779,-5.697915 -0.13273,-0.149326 -1.59621,0.407742 -5.04027,1.91855 l -2.976498,1.305709 -0.115419,4.1923 c -0.131815,4.787915 -0.07509,9.243765 0.12048,9.463785 0.07315,0.0823 1.874786,0.169639 4.003627,0.194093 z M 84.512232,8.8981355 c 0.544457,0.00704 2.653662,0.218996 4.687117,0.4710083 9.018244,1.1176532 13.110591,1.9838712 17.154601,3.6310822 2.3938,0.975037 2.52261,1.059485 3.80344,2.493414 1.22362,1.370062 1.3332,1.568379 1.42315,2.578115 0.0536,0.601648 0.1461,1.094125 0.20557,1.094379 0.0595,2.45e-4 0.7598,-0.198565 1.55629,-0.441825 0.79649,-0.243267 3.02567,-0.842642 4.95375,-1.331945 1.92808,-0.489302 3.59099,-0.969909 3.69535,-1.06801 0.56525,-0.531352 -0.60034,-3.218152 -2.15476,-4.966888 -3.52967,-3.9709041 -10.79351,-5.8188361 -20.955501,-5.3311076 -1.99813,0.095899 -5.097264,0.3792703 -6.886954,0.6297049 -3.467887,0.4852682 -8.920771,1.5456165 -9.172012,1.7835474 -0.234162,0.2217566 0.58587,0.4442487 1.689959,0.4585248 z M 174.73606,60.345527 c 3.02298,-1.445842 6.42247,-3.438543 9.96043,-5.838566 3.38037,-2.293126 3.75278,-2.605244 8.71218,-7.301907 4.95869,-4.695992 5.18203,-4.934674 5.20835,-5.565951 0.0322,-0.772244 0.28624,-0.462229 -3.50762,-4.280492 -2.64148,-2.658474 -5.39735,-5.111192 -8.8311,-7.859666 -1.84301,-1.475198 -5.38688,-3.751442 -8.42768,-5.413134 -3.87747,-2.118898 -4.60764,-2.446845 -4.87792,-2.190879 -0.12356,0.117006 -0.22317,1.672409 -0.22138,3.456462 0.002,1.784046 -0.035,8.32819 -0.0817,14.542539 -0.13791,18.33283 -0.11752,20.793482 0.17413,21.01418 0.16376,0.123942 0.93866,-0.10644 1.89236,-0.562586 z M 77.768999,39.833172 c 0.142873,-0.135304 0.328568,-0.168619 0.412649,-0.07403 0.08408,0.09459 0.08232,0.238805 -0.0039,0.320469 -0.08623,0.08166 -0.271928,0.114979 -0.412643,0.07402 -0.140697,-0.04098 -0.138958,-0.185166 0.0039,-0.320464 z m 31.925281,2.234168 c 0.69498,0.02232 1.298,0.07928 1.34004,0.126574 0.0421,0.04732 -0.49219,0.06773 -1.18717,0.04541 -0.69498,-0.02231 -1.298,-0.07927 -1.34005,-0.126562 -0.0421,-0.04732 0.49219,-0.06774 1.18718,-0.04542 z m 2.53168,-0.02184 c 0.0286,-0.02714 0.49594,-0.0064 1.03837,0.04611 l 0.98623,0.0955 -0.99053,0.0077 c -0.92332,0.0072 -1.16279,-0.0274 -1.03407,-0.149304 z m 2.24726,0.08913 c 0.0346,-0.03274 0.2862,-0.02159 0.55912,0.02483 0.44972,0.0765 0.44924,0.08817 -0.005,0.124518 -0.47727,0.03817 -0.69108,-0.01947 -0.55394,-0.149345 z m 3.33396,-0.003 c 0.81015,0.0095 1.49308,0.0398 1.51762,0.06741 0.11479,0.12914 -0.15619,0.134262 -1.52163,0.02882 l -1.469,-0.113446 z m 3.69117,-2.142343 c 1.46989,0.03598 1.86487,0.131516 1.85168,0.447919 -0.0132,0.316397 -0.0792,0.331907 -0.30961,0.07272 -0.16108,-0.181208 -0.99434,-0.382768 -1.85169,-0.447913 -1.37813,-0.104714 -1.34224,-0.113147 0.30962,-0.07273 z m 0.83994,2.10981 c 0.37727,-0.071 0.78964,-0.306206 0.91637,-0.522675 0.1457,-0.248837 0.15739,-0.184003 0.0318,0.176295 -0.17149,0.491949 -0.29681,0.563423 -0.91638,0.522675 l -0.71772,-0.0472 z m 15.38059,4.533829 c -0.80023,-1.472288 -1.25142,-3.510893 -1.23216,-5.567251 0.0541,-5.781918 4.28997,-10.434733 9.82186,-10.788713 6.33206,-0.405189 11.53517,4.660402 11.414,11.112344 -0.16199,8.626258 -9.42471,13.756018 -16.47362,9.123214 -1.1035,-0.725265 -2.87202,-2.668891 -3.53006,-3.879612 z m 3.1233,2.833245 c 3.2223,2.621882 7.49876,2.995006 11.18717,0.976102 3.04514,-1.666794 5.01629,-5.033803 5.15008,-8.797058 0.16143,-4.540646 -2.52056,-8.655394 -6.68566,-10.257214 -1.37092,-0.527238 -4.26489,-0.686497 -5.7131,-0.314401 -4.62082,1.187247 -7.79066,5.368881 -7.83702,10.338555 -0.0171,1.837045 0.32196,3.211325 1.19493,4.842823 0.80545,1.505293 1.23702,2.017895 2.7036,3.211193 z m -0.40114,-5.210368 c -2.14162,-5.090665 1.60981,-10.745763 6.97051,-10.50767 4.29234,0.190642 7.41106,4.026011 6.8896,8.472758 -0.35478,3.025421 -2.3208,5.318953 -5.34249,6.232483 -3.46759,1.048343 -7.05429,-0.719223 -8.51762,-4.197571 z m 4.22218,3.116001 c 5.12125,2.026571 10.14428,-2.879874 8.43342,-8.237678 -0.52559,-1.645944 -2.13608,-3.384104 -3.71416,-4.008578 -3.28414,-1.299598 -6.9851,0.368212 -8.25119,3.718335 -0.9503,2.514521 -0.51551,4.788744 1.31997,6.904265 0.77697,0.895499 1.25074,1.243277 2.21196,1.623656 z"
           id="path248" />
        <path
           style="fill:#ffffff;fill-opacity:1;stroke:#000000;stroke-width:0.136;stroke-miterlimit:4;stroke-dasharray:none"
           d="M 96.299138,47.613003 C 92.385033,47.343722 88.37051,46.694524 84.156281,45.649349 81.376482,44.95993 76.102371,43.263551 75.001993,42.704942 l -0.672144,-0.341214 0.04714,-5.664738 0.04715,-5.664737 5.982143,-0.09771 c 3.290178,-0.05374 6.002232,-0.114008 6.026786,-0.133929 0.167497,-0.1359 -5.36e-4,-1.637132 -0.20196,-1.804295 -0.166251,-0.137977 -2.100873,-0.246924 -5.9375,-0.334366 L 74.60271,28.53425 74.479547,27.417659 c -0.06774,-0.614126 -0.06774,-3.225733 0,-5.803572 l 0.123163,-4.68698 1.696429,-0.591399 c 12.05859,-4.203798 23.387614,-5.126944 34.107141,-2.779224 2.39098,0.523656 7.09098,2.041553 8.125,2.624024 l 0.71429,0.402361 -0.0604,6.511405 c -0.12426,13.405069 -0.33184,20.742361 -0.59142,20.905035 -0.58238,0.364957 -4.53487,1.660376 -6.51359,2.134816 -5.12272,1.228278 -11.1769,1.795628 -15.781061,1.478875 z m 7.743492,-9.969625 c 1.6045,-0.33994 2.47423,-0.871461 3.90126,-2.38419 1.34294,-1.423585 1.86184,-2.559217 2.03456,-4.452628 0.30571,-3.351535 -1.33353,-6.445437 -4.15339,-7.839086 -1.17287,-0.579664 -1.54418,-0.673633 -2.9221,-0.739513 -2.77796,-0.132815 -4.922347,0.837839 -6.541856,2.961159 -1.288211,1.688956 -1.845675,4.825361 -1.255652,7.064535 0.718804,2.727901 2.892025,4.77303 5.727388,5.389814 1.42374,0.309707 1.74761,0.309698 3.20979,-9.1e-5 z"
           id="path243"
           transform="matrix(1.4582219,-0.00514187,0.00513916,1.4574532,-2.4247093,-1.9231536)" />
        <path
           style="fill:#ffffff;stroke:none;stroke-width:1.43622"
           d="m 135.45706,29.310974 c -1.17512,-0.804689 -3.56742,-2.740652 -5.73813,-4.643553 -2.52221,-2.211038 -5.8923,-5.33859 -5.82506,-5.405837 0.0819,-0.08193 1.98382,1.064582 3.67137,2.213223 2.68872,1.830078 4.80036,3.50355 6.2439,4.948268 1.87389,1.875411 3.14605,3.549118 2.68964,3.538579 -0.0521,-0.0012 -0.52086,-0.294008 -1.04172,-0.65068 z"
           id="path1076"
           transform="matrix(1.4582219,-0.00514187,0.00513916,1.4574532,-2.4247093,-1.9231536)" />
        <path
           style="fill:#a8a7a7;fill-opacity:1;stroke:none;stroke-width:1.43623"
           d="m 71.966121,41.648717 c -0.6875,-0.261906 -1.860107,-0.763622 -2.605794,-1.114923 l -1.355794,-0.638729 0.04329,-4.43384 c 0.03346,-3.426965 0.08023,-4.470725 0.205931,-4.596264 0.122203,-0.122043 0.764491,-0.162425 2.583432,-0.162425 1.331437,0 2.467626,0.04702 2.524863,0.104497 0.143822,0.144413 0.113723,11.061186 -0.03089,11.20415 -0.0693,0.0685 -0.612089,-0.07563 -1.365041,-0.362466 z"
           id="path1088"
           transform="matrix(1.4582219,-0.00514187,0.00513916,1.4574532,-2.4247093,-1.9231536)" />
        <path
           style="fill:#a8a7a7;fill-opacity:1;stroke:#000000;stroke-width:1.43623;stroke-opacity:1"
           d="m 68.326782,28.669372 c -0.26147,-0.172331 -0.320351,-1.560825 -0.229489,-5.411694 l 0.09082,-3.849073 2.369518,-1.014762 c 1.303235,-0.558119 2.532975,-1.047454 2.732755,-1.08741 l 0.363236,-0.07265 -6.5e-4,4.546875 c -3.5e-4,2.500781 -0.03696,5.095312 -0.08135,5.765625 l -0.0807,1.21875 -2.512397,-0.0019 c -1.381819,-0.001 -2.5751,-0.04324 -2.651737,-0.09375 z"
           id="path1090"
           transform="matrix(1.4582219,-0.00514187,0.00513916,1.4574532,-2.4247093,-1.9231536)" />
        <path
           style="fill:#a8a7a7;fill-opacity:1;stroke:#000000;stroke-width:1.43623;stroke-opacity:1"
           d="M 71.966121,41.651297 C 71.278621,41.39081 70.1065,40.889549 69.361408,40.537385 l -1.354714,-0.640299 0.04221,-4.434887 c 0.03264,-3.429018 0.0791,-4.471718 0.20485,-4.597275 0.122183,-0.121996 0.764788,-0.162388 2.583432,-0.162388 1.331437,0 2.467626,0.04702 2.524863,0.104497 0.143822,0.144413 0.113723,11.061186 -0.03089,11.20415 -0.0693,0.0685 -0.612101,-0.0746 -1.365041,-0.359886 z"
           id="path1092"
           transform="matrix(1.4582219,-0.00514187,0.00513916,1.4574532,-2.4247093,-1.9231536)" />
        <path
           style="fill:#e9180a;fill-opacity:1;stroke:#000000;stroke-width:1.43623;stroke-opacity:1"
           d="m 68.903621,53.561869 c -3.741937,-0.265665 -10.875,-1.436105 -10.875,-1.784441 0,-0.05048 1.195313,-0.189185 2.65625,-0.308237 6.636253,-0.540787 11.34559,-1.47849 14.15625,-2.81873 2.10334,-1.00296 3.0625,-1.99501 3.0625,-3.167514 0,-0.249236 0.04817,-0.482926 0.107039,-0.519311 0.05887,-0.03638 0.66356,0.0951 1.34375,0.292188 4.186543,1.213065 5.255126,1.548226 5.408906,1.6965 0.351505,0.338921 -0.303148,2.038275 -1.168458,3.033093 -1.341202,1.541934 -3.98272,2.812604 -6.941237,3.338995 -1.160961,0.206562 -6.067616,0.356901 -7.75,0.237457 z"
           id="path1096"
           transform="matrix(1.4582219,-0.00514187,0.00513916,1.4574532,-2.4247093,-1.9231536)" />
        <path
           style="fill:#e9180a;fill-opacity:1;stroke:#000000;stroke-width:1.43623;stroke-opacity:1"
           d="M 78.207549,14.046286 C 78.093049,13.259348 77.933599,12.973273 77.09416,12.048715 76.316245,11.191918 75.663885,10.825009 73.568439,10.065727 71.243815,9.2234025 68.055932,8.5806301 63.153621,7.9657886 61.812996,7.7976492 60.251743,7.621563 59.684169,7.574486 59.116596,7.527409 58.626602,7.4474453 58.595295,7.3967891 58.458666,7.1757177 63.84468,6.2383987 66.949715,5.9428834 c 2.934622,-0.2792965 7.648114,-0.19433 9.703906,0.1749249 4.237127,0.761059 6.915458,2.3954328 8.189527,4.9974197 0.455045,0.929325 0.54332,1.581131 0.230671,1.703237 -0.204536,0.07988 -6.653161,1.821571 -6.74439,1.821571 -0.01952,0 -0.07437,-0.267188 -0.12188,-0.59375 z"
           id="path1098"
           transform="matrix(1.4582219,-0.00514187,0.00513916,1.4574532,-2.4247093,-1.9231536)" />
        <path
           style="fill:#e9180a;fill-opacity:1;stroke:#000000;stroke-width:0.436;stroke-miterlimit:4;stroke-dasharray:none;stroke-opacity:1"
           d="m 62.832746,30.264691 c -2.440625,-0.05179 -5.196875,-0.136162 -6.125,-0.1875 l -1.6875,-0.09334 -0.04028,-0.351309 c -0.0865,-0.754368 -0.192324,-0.740646 5.033286,-0.652666 l 19.268271,0.121947 c 0,0 6.832475,-0.115919 6.832475,0.225581 0,0.221185 0.43981,1.275074 0.0063,1.216932 -0.27152,-0.03642 -3.744957,0.13635 -6.6875,0.19296 -4.658906,0.08963 -5.8787,-0.08877 -5.8787,-0.08877 l -10.72135,-0.383797 z"
           id="path1106"
           transform="matrix(1.4582219,-0.00514187,0.00513916,1.4574532,-2.4247093,-1.9231536)"
           sodipodi:nodetypes="cscsccsssccc" />
        <path
           style="fill:#ffffff;fill-opacity:1;stroke:#000000;stroke-width:0.436;stroke-miterlimit:4;stroke-dasharray:none;stroke-opacity:1"
           d="M 96.767693,47.549791 C 91.966937,47.17702 88.130172,46.555847 83.892694,45.465326 80.851503,44.68267 76.435369,43.251318 74.972549,42.574138 l -0.545144,-0.252362 0.03168,-5.069865 c 0.01743,-2.788425 0.04708,-5.299347 0.06591,-5.579825 l 0.03422,-0.509961 0.635486,-0.03541 c 0.349518,-0.01947 1.901112,-0.05168 3.447987,-0.07157 1.546875,-0.01989 3.93693,-0.06146 5.311235,-0.09238 2.292256,-0.05157 2.505771,-0.06549 2.583895,-0.168471 0.06434,-0.08481 0.07565,-0.244693 0.04628,-0.654056 -0.04752,-0.662115 -0.185224,-1.152515 -0.348113,-1.23969 -0.183051,-0.09797 -1.148025,-0.173302 -3.155793,-0.246372 -2.19143,-0.07976 -6.650253,-0.190884 -7.658805,-0.190884 h -0.73029 l -0.08103,-0.794721 c -0.06297,-0.617606 -0.0701,-1.630942 -0.03198,-4.546875 0.02698,-2.063685 0.06661,-4.282389 0.08808,-4.930454 l 0.03902,-1.178301 0.3125,-0.119444 c 0.783299,-0.299394 3.94445,-1.335796 5.1875,-1.700752 6.08966,-1.78791 11.673219,-2.673761 17.468749,-2.771478 4.251284,-0.07168 7.952754,0.262413 11.968744,1.080294 2.88085,0.586703 7.68494,2.121492 9.05523,2.89293 l 0.43023,0.242206 -0.01,2.397672 c -0.0363,8.939903 -0.26379,20.905222 -0.44789,23.553923 -0.0948,1.363612 -0.072,1.297997 -0.52062,1.500483 -0.85245,0.384766 -4.09757,1.429793 -5.80839,1.870473 -2.52645,0.650775 -5.87673,1.183029 -9.29258,1.476296 -1.08608,0.09325 -5.514384,0.173787 -6.281244,0.114242 z m 6.632437,-9.682234 c 1.45564,-0.251075 2.38044,-0.611351 3.2447,-1.264043 0.57527,-0.434441 1.65511,-1.529711 2.14127,-2.171878 1.31428,-1.735998 1.69235,-4.51464 0.94389,-6.937089 -0.73418,-2.376238 -2.48745,-4.203696 -4.84561,-5.050668 -0.6051,-0.21733 -1.27945,-0.299719 -2.44684,-0.298945 -1.77573,0.0012 -2.993076,0.335736 -4.239637,1.165169 -1.695795,1.128343 -2.750015,2.737748 -3.220708,4.916831 -0.187227,0.866769 -0.230825,2.650204 -0.08473,3.466221 0.511617,2.857768 2.585687,5.116901 5.437735,5.922923 1.2262,0.34654 2.1026,0.418331 3.06994,0.251479 z"
           id="path1118"
           transform="matrix(1.4582219,-0.00514187,0.00513916,1.4574532,-2.4247093,-1.9231536)" />
        <path
           style="fill:#ffffff;fill-opacity:1;stroke:#000000;stroke-width:1.436;stroke-miterlimit:4;stroke-dasharray:none;stroke-opacity:1"
           d="M 96.330193,47.26731 C 89.807085,46.705752 84.660744,45.641542 78.392694,43.558022 76.881716,43.055768 75.273177,42.457463 74.861481,42.244566 l -0.199834,-0.103338 0.03886,-4.85459 c 0.02137,-2.670025 0.05458,-5.084172 0.07381,-5.36477 l 0.03495,-0.510179 0.572968,-0.03668 c 0.315133,-0.02018 2.541719,-0.06699 4.947969,-0.104037 2.40625,-0.03704 4.791855,-0.08906 5.301346,-0.115595 1.187136,-0.06182 1.202297,-0.07285 1.190682,-0.866293 -0.0096,-0.654077 -0.163738,-1.305159 -0.354467,-1.497041 -0.08572,-0.08624 -0.270862,-0.163134 -0.482114,-0.200232 -0.640859,-0.112542 -4.172071,-0.250728 -9.074904,-0.355126 l -1.981956,-0.0422 -0.04929,-0.287466 c -0.05692,-0.33191 -0.03256,-7.462669 0.03215,-9.412466 l 0.04356,-1.3125 1.8125,-0.612009 c 5.352483,-1.807318 9.816085,-2.869989 14.468749,-3.444643 6.866964,-0.848143 13.87522,-0.513805 19.71875,0.94071 2.823,0.702673 6.65424,1.987842 7.62907,2.559132 l 0.27718,0.162438 -5e-4,2.822186 c -2.5e-4,1.552202 -0.0281,4.833123 -0.0618,7.290936 -0.14023,10.222942 -0.32833,16.428844 -0.50816,16.764848 -0.0726,0.135614 -0.26253,0.218708 -1.49205,0.652676 -4.20301,1.483483 -7.80034,2.263515 -12.77824,2.770789 -1.95538,0.199263 -6.28144,0.299503 -7.690513,0.1782 z m 6.831847,-9.118722 c 0.70371,-0.08824 1.82047,-0.377356 2.3837,-0.617114 0.75146,-0.319887 1.44781,-0.828379 2.2848,-1.668417 0.90036,-0.903629 1.30437,-1.420505 1.68033,-2.14976 0.60325,-1.170127 0.8167,-2.13816 0.8131,-3.6875 -0.004,-1.518268 -0.20126,-2.43362 -0.80446,-3.724133 -0.71172,-1.522696 -1.93851,-2.798632 -3.47314,-3.612293 -1.06156,-0.562833 -1.67388,-0.718111 -3.03165,-0.768793 -2.55511,-0.09538 -4.158768,0.411866 -5.818612,1.840449 -1.795738,1.545545 -2.756786,4.100057 -2.627312,6.98352 0.04338,0.966127 0.101381,1.280123 0.402857,2.180967 0.919034,2.746174 3.357214,4.700205 6.483537,5.196105 0.63772,0.101155 1.06176,0.107855 1.70685,0.02697 z"
           id="path1122"
           transform="matrix(1.4582219,-0.00514187,0.00513916,1.4574532,-2.4247093,-1.9231536)" />
        <path
           style="fill:#a8a7a7;fill-opacity:1;stroke:#000000;stroke-width:0;stroke-miterlimit:4;stroke-dasharray:none;stroke-opacity:1"
           d="m 145.84128,51.759146 c -2.41643,-0.437172 -4.63943,-1.440533 -6.41187,-3.340871 -0.88212,-0.945789 -2.06982,-3.254383 -2.39133,-4.583341 -0.27449,-1.134561 -0.0525,-4.01358 0.2778,-5.277434 0.82472,-3.156053 2.99687,-5.64868 5.76948,-6.954537 1.54539,-0.727858 2.48958,-0.907448 4.39479,-0.835914 1.80534,0.06779 2.75532,0.280063 3.97651,0.888572 2.4859,1.238697 4.26738,3.326044 5.26777,6.172195 0.45877,1.305174 0.47089,1.388887 0.47999,3.3097 0.007,1.660396 -0.0362,2.131856 -0.28059,2.994529 -1.26762,4.476846 -4.84945,7.432413 -9.29932,7.673386 -0.64652,0.03502 -1.449,0.01418 -1.78323,-0.04628 z m 3.0028,-3.057378 c 0.32165,-0.06969 1.07224,-0.366343 1.66792,-0.659209 2.54219,-1.249866 4.03557,-3.784051 4.02483,-6.829946 -0.008,-2.270777 -0.68961,-3.961204 -2.22679,-5.522673 -1.82607,-1.854912 -4.15374,-2.553372 -6.67787,-2.00381 -2.65246,0.577506 -4.89815,2.811235 -5.58996,5.560175 -0.25518,1.013932 -0.25461,3.029998 0.002,3.988102 0.29742,1.114336 1.05785,2.537941 1.77754,3.32772 1.83667,2.015542 4.2304,2.744793 7.02325,2.139641 z"
           id="path1126"
           sodipodi:nodetypes="ssssssssccssscssssscscc" />
        <path
           style="fill:#79d6ed;fill-opacity:1;stroke:#000000;stroke-width:0.781405;stroke-miterlimit:4;stroke-dasharray:none;stroke-opacity:1"
           d="m 145.03631,48.428445 c -6.39446,-2.63995 -6.59193,-11.032439 -0.27392,-14.189181 2.80389,-1.40095 5.79356,-0.697227 8.22482,1.935991 3.68749,3.993817 0.4582,9.761714 -2.17733,11.530462 0,0 -1.91736,1.987535 -5.77357,0.722728 z"
           id="path1128"
           sodipodi:nodetypes="csscc" />
        <path
           style="fill:#e9180a;fill-opacity:1;stroke:#000000;stroke-width:0.936;stroke-miterlimit:4;stroke-dasharray:none;stroke-opacity:1"
           d="m 120.01315,42.904693 c -0.13866,-0.74988 0.14019,-25.88486 0.28882,-26.033361 0.0615,-0.06149 0.72269,0.190416 1.46921,0.559802 1.09909,0.543843 1.28266,0.689231 0.96495,0.764232 -0.34058,0.0804 -0.0446,0.422366 2.24311,2.59191 5.61964,5.329294 10.67059,9.424845 11.62344,9.424845 0.34103,0 0.34919,-0.273709 0.0343,-1.149049 -0.0793,-0.220371 0.0768,-0.120485 0.41445,0.265165 0.29791,0.340296 0.54379,0.788522 0.54641,0.996058 0.005,0.385183 -3.75712,4.176333 -6.41563,6.465395 -1.65162,1.4221 -5.75699,4.111278 -8.2863,5.427858 -2.69045,1.40046 -2.74829,1.414249 -2.88274,0.687145 z"
           id="path1130"
           transform="matrix(1.4582219,-0.00514187,0.00513916,1.4574532,-2.4247093,-1.9231536)" />
      </g>
    </g>
  </g>
</svg>
